<svg width="117" height="38" viewBox="0 0 117 38" fill="none" xmlns="http://www.w3.org/2000/svg">
<g clip-path="url(#clip0_8_10)">
<path d="M116.854 9.72478C116.645 10.5372 116.538 11.3966 116.206 12.1621C114.999 14.9279 112.832 16.5907 109.876 17.0809C106.487 17.6424 103.589 16.6142 101.466 13.8781C99.72 11.6295 99.3863 9.0938 100.349 6.40014C100.394 6.27647 100.451 6.15642 100.494 6.03094C100.507 5.94676 100.512 5.86153 100.509 5.77638C99.805 5.70868 99.0925 5.53987 98.3971 5.59584C96.7467 5.72312 95.6399 6.73595 95.3044 8.36532C95.1669 9.06304 95.0946 9.77199 95.0883 10.4831C95.0593 12.3625 95.0783 14.2428 95.0783 16.1222V16.6837H90.9259V1.7702H95.0621V5.00457C95.7159 3.75524 96.3064 2.49778 97.5633 1.73861C98.8483 0.962288 100.197 0.97312 101.601 1.37753C101.459 2.44271 101.323 3.45374 101.189 4.47288L101.302 4.53968C101.403 4.43497 101.511 4.33387 101.605 4.22284C103.405 2.09517 105.716 1.04895 108.494 1.07513C112.627 1.11575 116.271 4.09736 116.778 8.19471C116.797 8.27365 116.825 8.35003 116.863 8.42219L116.854 9.72478ZM108.37 5.03075C105.929 5.03075 104.329 6.69172 104.319 9.23733C104.311 11.5843 105.953 13.2254 108.315 13.2245C110.73 13.2245 112.313 11.6114 112.313 9.15247C112.312 6.64297 110.768 5.02714 108.37 5.02804V5.03075Z" fill="white"/>
<path d="M74.863 6.4516C75.2248 5.77006 75.5367 5.047 75.9744 4.4124C77.1852 2.65304 78.9052 1.64563 81.0004 1.28184C83.2087 0.898195 85.3238 1.12387 87.2183 2.42014C88.9211 3.58553 89.8624 5.25101 90.1608 7.25861C90.2992 8.18478 90.2829 9.13442 90.3417 10.1635H79.0038C78.8717 11.2828 79.6169 12.5105 80.6975 13.0521C81.5583 13.4885 82.5442 13.613 83.4867 13.4044C84.4293 13.1958 85.2701 12.6671 85.8655 11.9084C86.0716 11.6439 86.1992 11.6078 86.5093 11.7829C87.504 12.3453 88.5349 12.8553 89.5929 13.4078C88.7764 14.7038 87.6118 15.745 86.2317 16.4129C84.3327 17.3571 82.3605 17.3833 80.3385 16.9229C78.8618 16.5871 77.4828 16.0301 76.4953 14.8593C75.9165 14.1733 75.5205 13.332 75.0683 12.5448C74.9318 12.3083 74.8875 12.0222 74.7627 11.6593C74.5384 12.2821 74.3693 12.8219 74.1532 13.3419C72.9821 16.1601 70.5948 17.4528 67.6559 17.1946C65.9938 17.0493 64.6401 16.2062 63.5568 14.9379C63.4501 14.8133 63.2855 14.7402 63.1426 14.6436C63.0992 14.8115 63.0187 14.9794 63.0187 15.1473C63.0103 17.6929 63.0082 20.2382 63.0124 22.7832V23.4702H58.8382V1.77652H62.9844V3.83287L63.0748 3.92314C64.7766 1.64112 66.9732 0.662591 69.7773 1.30531C72.5815 1.94803 74.1676 3.77961 74.863 6.4516ZM62.8668 8.90152C62.9844 9.62368 63.0477 10.2357 63.1851 10.8297C63.8488 13.7183 67.4714 14.2329 69.2972 12.5502C71.0397 10.9452 71.0741 7.46172 69.422 5.69784C67.8964 4.07299 64.358 4.18221 63.3587 6.73234C63.0802 7.44366 63.0115 8.23713 62.8668 8.90152ZM79.0291 7.46533H85.9016C85.842 6.42271 85.3898 5.64368 84.5353 5.14449C83.1843 4.35463 81.7998 4.42865 80.466 5.18421C79.606 5.66625 79.087 6.40195 79.0291 7.46533Z" fill="white"/>
<path d="M4.14705 14.482V23.4702H0V1.7747H4.15428V3.73175C4.37312 3.58191 4.52142 3.52052 4.61185 3.4122C5.99722 1.78734 7.72983 0.949638 9.89288 1.14643C12.802 1.41182 15.1423 3.1459 15.8693 6.11127C16.5394 8.85186 16.2382 11.5329 14.9379 14.0433C14.0481 15.7584 12.5967 16.7983 10.6416 17.1125C8.06622 17.5277 6.04334 16.6196 4.44637 14.6355C4.39032 14.556 4.33986 14.4727 4.29535 14.3863L4.14705 14.482ZM8.4415 4.62362C5.92216 4.62362 4.601 5.63916 4.24471 7.58808C4.10202 8.43399 4.07798 9.29561 4.17327 10.1481C4.37041 12.1232 5.55593 13.3013 7.57248 13.4881C9.20019 13.6389 10.7275 12.9041 11.432 11.0301C11.7015 10.3382 11.8246 9.59813 11.7935 8.85643C11.7624 8.11473 11.5777 7.38751 11.2511 6.72059C10.5955 5.33585 9.44526 4.64799 8.4415 4.62362Z" fill="white"/>
<path d="M55.2374 5.77728C54.475 4.26706 52.8193 3.62524 51.4086 4.25442C50.9194 4.47288 50.5948 4.81319 50.5522 5.37919C50.5097 5.94518 50.7177 6.41819 51.2277 6.6556C52.2225 7.11869 53.2344 7.53122 54.2481 7.94736C54.8015 8.17484 55.3829 8.33733 55.9291 8.57925C57.3959 9.2319 58.3038 10.3531 58.4819 11.949C58.68 13.7237 57.9475 15.1148 56.4744 16.1159C55.6461 16.6792 54.7056 16.9283 53.72 17.0664C52.1691 17.284 50.6373 17.312 49.128 16.8164C47.7065 16.3488 46.6964 15.4181 45.9811 14.0559L49.1931 12.367C49.2483 12.4184 49.3043 12.4446 49.3161 12.4834C49.7501 13.9711 51.2314 14.4053 52.6258 14.1516C53.0177 14.0896 53.3977 13.9678 53.7525 13.7905C54.4154 13.434 54.5917 12.784 54.1269 12.2018C53.7892 11.7755 53.3596 11.4309 52.8699 11.1935C51.8626 10.7277 50.7837 10.4162 49.7719 9.96038C49.1087 9.65285 48.4801 9.27613 47.8964 8.83652C45.8644 7.33533 45.9612 4.80687 47.3764 3.17118C48.7147 1.62486 50.4754 1.02998 52.4612 1.06519C54.6912 1.10491 56.6444 1.81623 58.0578 3.64691C58.1672 3.78863 58.2513 3.94931 58.3825 4.15783L55.2374 5.77728Z" fill="white"/>
<path d="M16.8342 1.76026H20.9677V5.00094L21.0744 5.02983C21.2227 4.69764 21.3556 4.35732 21.5265 4.03686C22.1722 2.79565 22.9987 1.73949 24.4202 1.31162C25.4411 1.0038 26.4521 1.0715 27.5255 1.38925C27.3148 2.89585 27.105 4.39884 26.8925 5.94426C26.35 5.83143 25.8553 5.70866 25.3552 5.63013C23.0837 5.26905 21.522 6.54546 21.1123 8.74444C21.0407 9.15336 21.0056 9.56782 21.0074 9.98294C20.9975 12.1936 21.0029 14.4062 21.0029 16.6629H16.8432L16.8342 1.76026Z" fill="white"/>
<path d="M32.236 1.83791C32.2361 1.9581 32.2006 2.07565 32.1338 2.17567C32.0671 2.27569 31.9721 2.3537 31.8609 2.39982C31.7497 2.44594 31.6273 2.4581 31.5092 2.43476C31.3911 2.41142 31.2826 2.35363 31.1974 2.26871C31.1122 2.18378 31.0541 2.07553 31.0305 1.95766C31.007 1.83979 31.019 1.71759 31.065 1.60653C31.1111 1.49547 31.1891 1.40054 31.2892 1.33374C31.3893 1.26695 31.507 1.23129 31.6274 1.23129C31.7886 1.23129 31.9433 1.29517 32.0574 1.40891C32.1715 1.52265 32.2357 1.67694 32.236 1.83791Z" fill="white"/>
<path d="M31.111 4.7166C31.599 4.7166 31.9945 4.32175 31.9945 3.83466C31.9945 3.34758 31.599 2.95273 31.111 2.95273C30.6231 2.95273 30.2275 3.34758 30.2275 3.83466C30.2275 4.32175 30.6231 4.7166 31.111 4.7166Z" fill="white"/>
<path d="M32.0904 7.23512C32.0904 7.51149 32.0083 7.78166 31.8544 8.01146C31.7006 8.24125 31.482 8.42036 31.2262 8.52612C30.9704 8.63189 30.689 8.65956 30.4174 8.60564C30.1459 8.55172 29.8965 8.41864 29.7007 8.22321C29.5049 8.02778 29.3716 7.7788 29.3176 7.50773C29.2636 7.23667 29.2913 6.9557 29.3973 6.70036C29.5032 6.44502 29.6826 6.22678 29.9128 6.07324C30.143 5.91969 30.4137 5.83774 30.6905 5.83774C31.0618 5.83774 31.4178 5.98496 31.6804 6.24702C31.9429 6.50908 32.0904 6.86451 32.0904 7.23512Z" fill="white"/>
<path d="M30.828 2.3127C30.8282 2.3819 30.8078 2.44959 30.7695 2.50725C30.7311 2.56491 30.6766 2.60994 30.6126 2.63666C30.5487 2.66339 30.4783 2.67061 30.4102 2.65742C30.3422 2.64422 30.2796 2.6112 30.2303 2.56253C30.181 2.51385 30.1473 2.4517 30.1334 2.38391C30.1195 2.31613 30.126 2.24574 30.1521 2.18165C30.1782 2.11755 30.2228 2.06261 30.2801 2.02376C30.3375 1.98491 30.4051 1.96389 30.4744 1.96336C30.5206 1.963 30.5665 1.97177 30.6093 1.98915C30.6521 2.00654 30.6911 2.0322 30.7239 2.06466C30.7568 2.09713 30.7829 2.13575 30.8007 2.17832C30.8186 2.22089 30.8279 2.26656 30.828 2.3127Z" fill="white"/>
<path d="M30.0024 3.01139C30.0024 3.08049 29.9818 3.14803 29.9434 3.20548C29.9049 3.26293 29.8503 3.3077 29.7863 3.33414C29.7224 3.36059 29.652 3.3675 29.5841 3.35402C29.5162 3.34054 29.4539 3.30727 29.4049 3.25842C29.356 3.20956 29.3227 3.14731 29.3092 3.07955C29.2957 3.01178 29.3026 2.94154 29.3291 2.8777C29.3556 2.81387 29.4004 2.75931 29.458 2.72092C29.5155 2.68254 29.5832 2.66205 29.6524 2.66205C29.7452 2.66205 29.8342 2.69885 29.8999 2.76437C29.9655 2.82988 30.0024 2.91874 30.0024 3.01139Z" fill="white"/>
<path d="M30.1055 3.9818C30.1055 4.03893 30.0885 4.09478 30.0567 4.14228C30.0249 4.18978 29.9797 4.22681 29.9268 4.24867C29.8739 4.27053 29.8158 4.27625 29.7596 4.26511C29.7035 4.25396 29.6519 4.22645 29.6115 4.18605C29.571 4.14565 29.5434 4.09418 29.5323 4.03815C29.5211 3.98212 29.5268 3.92404 29.5487 3.87125C29.5706 3.81847 29.6077 3.77336 29.6553 3.74161C29.7029 3.70987 29.7589 3.69293 29.8161 3.69293C29.8928 3.69293 29.9664 3.72337 30.0207 3.77754C30.075 3.83171 30.1055 3.90518 30.1055 3.9818Z" fill="white"/>
<path d="M29.9418 5.36474C29.942 5.42191 29.9251 5.47785 29.8934 5.52547C29.8618 5.57309 29.8166 5.61026 29.7638 5.63226C29.7109 5.65426 29.6527 5.66011 29.5965 5.64907C29.5403 5.63802 29.4887 5.61058 29.4481 5.57022C29.4076 5.52986 29.3799 5.47839 29.3687 5.42233C29.3574 5.36627 29.3631 5.30815 29.385 5.25531C29.4069 5.20248 29.4439 5.15731 29.4915 5.12553C29.5392 5.09375 29.5951 5.07678 29.6524 5.07678C29.729 5.07678 29.8025 5.10709 29.8567 5.16107C29.9109 5.21505 29.9415 5.28829 29.9418 5.36474Z" fill="white"/>
<path d="M29.9852 9.06672C29.9852 9.14224 29.9627 9.21606 29.9207 9.27886C29.8787 9.34165 29.8189 9.39059 29.749 9.41949C29.6792 9.44839 29.6022 9.45596 29.528 9.44122C29.4538 9.42649 29.3857 9.39012 29.3322 9.33672C29.2787 9.28332 29.2423 9.21528 29.2275 9.14121C29.2127 9.06714 29.2203 8.99037 29.2493 8.92059C29.2782 8.85082 29.3273 8.79118 29.3902 8.74923C29.4531 8.70727 29.527 8.68488 29.6027 8.68488C29.7041 8.68488 29.8014 8.72511 29.8731 8.79671C29.9449 8.86832 29.9852 8.96545 29.9852 9.06672Z" fill="white"/>
<path d="M31.9764 8.87353C31.9764 8.9216 31.9621 8.96858 31.9354 9.00853C31.9086 9.04849 31.8705 9.07961 31.826 9.09796C31.7815 9.11631 31.7326 9.12107 31.6854 9.11163C31.6382 9.10218 31.5948 9.07897 31.5608 9.04492C31.5269 9.01087 31.5038 8.96751 31.4945 8.92035C31.4852 8.87319 31.4901 8.82434 31.5087 8.77998C31.5272 8.73563 31.5586 8.69777 31.5987 8.67119C31.6388 8.64462 31.6859 8.63053 31.7341 8.63071C31.766 8.63071 31.7976 8.637 31.827 8.64921C31.8565 8.66142 31.8832 8.67932 31.9058 8.70188C31.9283 8.72445 31.9461 8.75122 31.9582 8.78068C31.9704 8.81013 31.9765 8.84169 31.9764 8.87353Z" fill="white"/>
<path d="M32.1925 10.2339C32.1925 10.2893 32.1761 10.3434 32.1453 10.3894C32.1145 10.4354 32.0707 10.4713 32.0195 10.4924C31.9683 10.5136 31.9119 10.5192 31.8575 10.5084C31.8031 10.4976 31.7532 10.4709 31.714 10.4318C31.6748 10.3926 31.6481 10.3428 31.6373 10.2885C31.6265 10.2342 31.632 10.178 31.6532 10.1268C31.6744 10.0757 31.7104 10.032 31.7565 10.0012C31.8026 9.97048 31.8568 9.95407 31.9122 9.95407C31.9866 9.95407 32.0579 9.98355 32.1104 10.036C32.163 10.0885 32.1925 10.1597 32.1925 10.2339Z" fill="white"/>
<path d="M31.6717 10.7629C31.6717 10.8122 31.657 10.8604 31.6295 10.9014C31.6021 10.9424 31.563 10.9743 31.5174 10.9931C31.4717 11.012 31.4215 11.0169 31.3731 11.0072C31.3246 10.9975 31.2802 10.9737 31.2453 10.9387C31.2104 10.9038 31.1867 10.8593 31.1772 10.8109C31.1677 10.7625 31.1727 10.7124 31.1918 10.6669C31.2108 10.6214 31.2429 10.5826 31.2841 10.5553C31.3253 10.528 31.3736 10.5136 31.423 10.5137C31.4557 10.5137 31.4881 10.5202 31.5184 10.5327C31.5486 10.5452 31.5761 10.5636 31.5992 10.5868C31.6223 10.6099 31.6406 10.6374 31.653 10.6676C31.6654 10.6978 31.6718 10.7302 31.6717 10.7629Z" fill="white"/>
<path d="M27.5915 7.6567C27.5917 7.72619 27.5712 7.79417 27.5327 7.85204C27.4942 7.9099 27.4393 7.95505 27.375 7.98177C27.3108 8.00848 27.24 8.01557 27.1717 8.00212C27.1034 7.98867 27.0407 7.9553 26.9914 7.90623C26.9421 7.85715 26.9085 7.79459 26.8948 7.72645C26.8812 7.65831 26.8881 7.58765 26.9147 7.52344C26.9413 7.45922 26.9864 7.40432 27.0443 7.3657C27.1021 7.32707 27.1702 7.30646 27.2398 7.30646C27.3329 7.30646 27.4223 7.34333 27.4882 7.40899C27.5541 7.47465 27.5913 7.56373 27.5915 7.6567Z" fill="white"/>
<path d="M28.9823 8.03403C28.9823 8.06581 28.9729 8.09688 28.9552 8.1233C28.9375 8.14973 28.9124 8.17032 28.883 8.18248C28.8536 8.19464 28.8212 8.19782 28.79 8.19163C28.7587 8.18543 28.7301 8.17012 28.7076 8.14765C28.685 8.12518 28.6697 8.09655 28.6635 8.06538C28.6573 8.03421 28.6605 8.0019 28.6727 7.97254C28.6848 7.94318 28.7055 7.91809 28.7319 7.90043C28.7584 7.88278 28.7895 7.87335 28.8214 7.87335C28.8641 7.87335 28.905 7.89028 28.9352 7.92041C28.9654 7.95055 28.9823 7.99142 28.9823 8.03403Z" fill="white"/>
<path d="M28.7011 5.57056C28.7011 5.60234 28.6917 5.63341 28.674 5.65983C28.6563 5.68625 28.6311 5.70685 28.6017 5.71901C28.5723 5.73117 28.5399 5.73435 28.5087 5.72815C28.4775 5.72196 28.4488 5.70665 28.4263 5.68418C28.4038 5.66171 28.3885 5.63308 28.3823 5.60191C28.376 5.57074 28.3792 5.53843 28.3914 5.50907C28.4036 5.47971 28.4242 5.45462 28.4507 5.43696C28.4772 5.41931 28.5083 5.40988 28.5401 5.40988C28.5828 5.40988 28.6238 5.42681 28.6539 5.45694C28.6841 5.48708 28.7011 5.52795 28.7011 5.57056Z" fill="white"/>
<path d="M29.1623 3.3445C29.1623 3.37307 29.1538 3.401 29.1379 3.42475C29.122 3.4485 29.0994 3.46701 29.073 3.47794C29.0465 3.48887 29.0174 3.49173 28.9894 3.48616C28.9613 3.48059 28.9355 3.46683 28.9153 3.44663C28.8951 3.42643 28.8813 3.4007 28.8757 3.37268C28.8701 3.34467 28.873 3.31562 28.8839 3.28923C28.8949 3.26284 28.9134 3.24028 28.9372 3.22441C28.961 3.20854 28.989 3.20007 29.0176 3.20007C29.056 3.20007 29.0928 3.21529 29.1199 3.24238C29.147 3.26946 29.1623 3.3062 29.1623 3.3445Z" fill="white"/>
<path d="M29.4471 4.13976C29.4471 4.16833 29.4386 4.19625 29.4227 4.22C29.4069 4.24376 29.3843 4.26227 29.3578 4.2732C29.3314 4.28413 29.3023 4.28699 29.2742 4.28142C29.2462 4.27585 29.2204 4.26209 29.2001 4.24189C29.1799 4.22169 29.1661 4.19596 29.1605 4.16794C29.155 4.13992 29.1578 4.11088 29.1688 4.08449C29.1797 4.0581 29.1983 4.03554 29.2221 4.01967C29.2459 4.0038 29.2738 3.99533 29.3024 3.99533C29.3408 3.99533 29.3776 4.01055 29.4048 4.03763C29.4319 4.06472 29.4471 4.10146 29.4471 4.13976Z" fill="white"/>
<path d="M30.6905 5.01177C30.6905 5.04034 30.682 5.06826 30.6661 5.09201C30.6502 5.11577 30.6276 5.13428 30.6012 5.14521C30.5748 5.15614 30.5457 5.159 30.5176 5.15343C30.4895 5.14786 30.4638 5.1341 30.4435 5.1139C30.4233 5.0937 30.4095 5.06797 30.4039 5.03995C30.3984 5.01193 30.4012 4.98289 30.4122 4.9565C30.4231 4.93011 30.4417 4.90755 30.4655 4.89168C30.4893 4.87581 30.5172 4.86734 30.5458 4.86734C30.5842 4.86734 30.621 4.88256 30.6481 4.90964C30.6753 4.93673 30.6905 4.97347 30.6905 5.01177Z" fill="white"/>
<path d="M31.5342 5.33224C31.5342 5.36081 31.5257 5.38873 31.5098 5.41248C31.4939 5.43623 31.4713 5.45475 31.4449 5.46568C31.4185 5.47661 31.3894 5.47947 31.3613 5.4739C31.3332 5.46832 31.3075 5.45457 31.2872 5.43437C31.267 5.41417 31.2532 5.38843 31.2476 5.36042C31.242 5.3324 31.2449 5.30336 31.2559 5.27697C31.2668 5.25058 31.2854 5.22802 31.3092 5.21215C31.3329 5.19628 31.3609 5.18781 31.3895 5.18781C31.4086 5.18769 31.4274 5.19134 31.445 5.19856C31.4627 5.20577 31.4787 5.21641 31.4921 5.22984C31.5056 5.24328 31.5162 5.25925 31.5235 5.27683C31.5307 5.2944 31.5343 5.31324 31.5342 5.33224Z" fill="white"/>
<path d="M32.3354 2.98431C32.3354 3.01291 32.3269 3.04087 32.311 3.06464C32.295 3.08841 32.2724 3.10693 32.2459 3.11783C32.2194 3.12874 32.1903 3.13154 32.1622 3.1259C32.1341 3.12025 32.1083 3.1064 32.0881 3.08611C32.0679 3.06582 32.0542 3.04001 32.0487 3.01193C32.0432 2.98385 32.0462 2.95478 32.0573 2.92841C32.0684 2.90203 32.0871 2.87954 32.111 2.86378C32.1349 2.84802 32.163 2.8397 32.1916 2.83988C32.2299 2.84012 32.2664 2.85544 32.2934 2.8825C32.3203 2.90956 32.3354 2.94616 32.3354 2.98431Z" fill="white"/>
<path d="M28.986 9.14795C28.986 9.35184 28.9254 9.55115 28.8119 9.72067C28.6984 9.8902 28.5372 10.0223 28.3484 10.1004C28.1597 10.1784 27.9521 10.1988 27.7518 10.159C27.5515 10.1192 27.3675 10.0211 27.223 9.87689C27.0786 9.73272 26.9803 9.54903 26.9404 9.34906C26.9006 9.14909 26.921 8.94182 26.9992 8.75345C27.0773 8.56508 27.2097 8.40408 27.3795 8.2908C27.5493 8.17753 27.749 8.11707 27.9533 8.11707C28.2271 8.11707 28.4898 8.22568 28.6835 8.419C28.8771 8.61233 28.986 8.87454 28.986 9.14795Z" fill="white"/>
<path d="M31.423 9.67872C31.423 9.77156 31.3954 9.86232 31.3438 9.93951C31.2921 10.0167 31.2186 10.0769 31.1327 10.1124C31.0468 10.1479 30.9523 10.1572 30.861 10.1391C30.7698 10.121 30.686 10.0763 30.6203 10.0106C30.5545 9.94499 30.5097 9.86135 30.4916 9.7703C30.4734 9.67924 30.4827 9.58486 30.5183 9.49909C30.5539 9.41332 30.6142 9.34001 30.6915 9.28843C30.7689 9.23685 30.8598 9.20932 30.9528 9.20932C31.0775 9.20932 31.1971 9.25878 31.2853 9.34681C31.3735 9.43484 31.423 9.55423 31.423 9.67872Z" fill="white"/>
<path d="M32.7414 1.11482C32.7414 1.17196 32.7245 1.2278 32.6927 1.27531C32.6609 1.32281 32.6157 1.35983 32.5628 1.3817C32.5099 1.40356 32.4518 1.40928 32.3956 1.39814C32.3395 1.38699 32.2879 1.35948 32.2475 1.31908C32.207 1.27868 32.1794 1.22721 32.1683 1.17118C32.1571 1.11514 32.1628 1.05706 32.1847 1.00428C32.2066 0.951497 32.2437 0.906383 32.2913 0.874642C32.3389 0.842901 32.3948 0.82596 32.4521 0.82596C32.4901 0.82584 32.5278 0.833231 32.563 0.847705C32.5981 0.86218 32.6301 0.883453 32.657 0.9103C32.6839 0.937147 32.7052 0.969039 32.7197 1.00414C32.7342 1.03924 32.7416 1.07686 32.7414 1.11482Z" fill="white"/>
<path d="M32.7197 4.38079C32.7199 4.42868 32.7059 4.47554 32.6793 4.51544C32.6528 4.55534 32.615 4.58649 32.5708 4.60494C32.5265 4.62339 32.4777 4.62831 32.4307 4.61908C32.3836 4.60985 32.3403 4.58688 32.3063 4.55308C32.2724 4.51928 32.2492 4.47618 32.2398 4.42922C32.2303 4.38227 32.2351 4.33358 32.2534 4.28932C32.2717 4.24507 32.3028 4.20723 32.3427 4.18061C32.3825 4.15398 32.4294 4.13977 32.4774 4.13977C32.5415 4.13977 32.603 4.16513 32.6484 4.21031C32.6939 4.25548 32.7195 4.31679 32.7197 4.38079Z" fill="white"/>
<path d="M32.5778 5.60667C32.5778 5.65452 32.5636 5.70129 32.5369 5.74108C32.5103 5.78086 32.4724 5.81187 32.4282 5.83018C32.3839 5.84849 32.3351 5.85328 32.2881 5.84395C32.2411 5.83461 32.1979 5.81157 32.1641 5.77774C32.1302 5.7439 32.1071 5.7008 32.0977 5.65387C32.0884 5.60694 32.0932 5.5583 32.1115 5.51409C32.1299 5.46989 32.1609 5.4321 32.2008 5.40552C32.2406 5.37894 32.2875 5.36475 32.3354 5.36475C32.3673 5.36463 32.3988 5.3708 32.4283 5.38292C32.4578 5.39504 32.4845 5.41285 32.5071 5.43534C32.5296 5.45783 32.5474 5.48454 32.5596 5.51395C32.5717 5.54336 32.5779 5.57487 32.5778 5.60667Z" fill="white"/>
<path d="M32.8861 6.4218C32.8861 6.48268 32.868 6.5422 32.8342 6.59282C32.8003 6.64344 32.7521 6.68289 32.6958 6.70619C32.6394 6.72949 32.5774 6.73559 32.5176 6.72371C32.4578 6.71183 32.4029 6.68251 32.3597 6.63946C32.3166 6.59642 32.2872 6.54157 32.2753 6.48186C32.2634 6.42214 32.2695 6.36025 32.2929 6.30401C32.3162 6.24776 32.3557 6.19968 32.4065 6.16586C32.4572 6.13204 32.5168 6.11398 32.5778 6.11398C32.6596 6.11398 32.738 6.14641 32.7958 6.20414C32.8536 6.26187 32.8861 6.34016 32.8861 6.4218Z" fill="white"/>
<path d="M29.1695 4.62273C29.1695 4.73467 29.1363 4.8441 29.074 4.93717C29.0117 5.03025 28.9231 5.10279 28.8195 5.14563C28.7159 5.18847 28.6019 5.19968 28.4919 5.17784C28.3819 5.156 28.2809 5.1021 28.2016 5.02294C28.1223 4.94379 28.0683 4.84294 28.0464 4.73314C28.0246 4.62335 28.0358 4.50955 28.0787 4.40613C28.1216 4.30271 28.1943 4.21431 28.2875 4.15212C28.3808 4.08993 28.4904 4.05673 28.6025 4.05673C28.677 4.05661 28.7508 4.07117 28.8196 4.09957C28.8885 4.12798 28.951 4.16966 29.0037 4.22224C29.0564 4.27482 29.0981 4.33727 29.1266 4.40599C29.1551 4.47471 29.1696 4.54836 29.1695 4.62273Z" fill="white"/>
<path d="M28.3367 6.4218C28.3367 6.53374 28.3034 6.64317 28.2411 6.73624C28.1788 6.82932 28.0903 6.90187 27.9867 6.9447C27.8831 6.98754 27.7691 6.99875 27.6591 6.97691C27.5491 6.95507 27.4481 6.90117 27.3688 6.82201C27.2895 6.74286 27.2355 6.64201 27.2136 6.53222C27.1917 6.42242 27.2029 6.30862 27.2459 6.2052C27.2888 6.10178 27.3614 6.01338 27.4547 5.95119C27.5479 5.889 27.6576 5.8558 27.7697 5.8558C27.9201 5.8558 28.0643 5.91544 28.1706 6.02158C28.2769 6.12772 28.3367 6.27169 28.3367 6.4218Z" fill="white"/>
<path d="M35.6107 0.59487C35.6107 0.699506 35.5796 0.801782 35.5213 0.888719C35.4629 0.975656 35.3801 1.04334 35.2831 1.08317C35.1862 1.123 35.0796 1.13319 34.9769 1.11245C34.8741 1.0917 34.7799 1.04096 34.7061 0.966653C34.6323 0.892348 34.5823 0.797832 34.5624 0.695099C34.5425 0.592366 34.5536 0.486048 34.5943 0.389636C34.635 0.293225 34.7036 0.211066 34.7911 0.153587C34.8787 0.0961069 34.9814 0.0658974 35.0863 0.0667918C35.2258 0.0679822 35.3592 0.124144 35.4574 0.223049C35.5556 0.321954 35.6108 0.455594 35.6107 0.59487Z" fill="white"/>
<path d="M36.5729 0.416145C36.5729 0.498451 36.5485 0.578908 36.5026 0.647342C36.4568 0.715777 36.3917 0.769115 36.3156 0.800612C36.2394 0.832109 36.1556 0.84035 36.0747 0.824293C35.9938 0.808236 35.9196 0.768602 35.8613 0.710403C35.803 0.652205 35.7632 0.578055 35.7472 0.497331C35.7311 0.416607 35.7393 0.332934 35.7709 0.256894C35.8024 0.180853 35.8559 0.11586 35.9244 0.0701339C35.993 0.0244074 36.0736 9.83423e-07 36.156 9.83423e-07C36.2108 -0.000118021 36.2651 0.0105646 36.3157 0.0314357C36.3663 0.0523067 36.4123 0.0829551 36.4511 0.121621C36.4898 0.160288 36.5205 0.20621 36.5414 0.256753C36.5623 0.307296 36.573 0.361463 36.5729 0.416145Z" fill="white"/>
<path d="M34.106 0.748345C34.1069 0.820838 34.0862 0.891961 34.0465 0.952673C34.0068 1.01339 33.9499 1.06095 33.8831 1.08931C33.8162 1.11767 33.7425 1.12556 33.6711 1.11197C33.5998 1.09838 33.5341 1.06392 33.4824 1.01297C33.4308 0.962028 33.3954 0.896897 33.3809 0.825859C33.3664 0.75482 33.3734 0.681082 33.401 0.614015C33.4286 0.546948 33.4755 0.489582 33.5358 0.449207C33.5962 0.408832 33.6671 0.387271 33.7398 0.387266C33.7877 0.386668 33.8352 0.395567 33.8796 0.413445C33.924 0.431323 33.9644 0.457825 33.9985 0.491414C34.0325 0.525003 34.0596 0.565011 34.078 0.609116C34.0965 0.653221 34.106 0.700545 34.106 0.748345Z" fill="white"/>
<path d="M34.862 1.76928C34.862 1.83052 34.8438 1.89038 34.8097 1.9413C34.7756 1.99222 34.7272 2.0319 34.6705 2.05534C34.6138 2.07877 34.5515 2.08491 34.4913 2.07296C34.4311 2.06101 34.3759 2.03152 34.3325 1.98822C34.2891 1.94492 34.2596 1.88975 34.2476 1.82969C34.2356 1.76963 34.2418 1.70737 34.2653 1.65079C34.2887 1.59422 34.3285 1.54586 34.3795 1.51184C34.4305 1.47782 34.4905 1.45966 34.5518 1.45966C34.5926 1.45954 34.633 1.46747 34.6707 1.48298C34.7083 1.4985 34.7426 1.5213 34.7714 1.55008C34.8002 1.57885 34.8231 1.61303 34.8386 1.65065C34.8542 1.68827 34.8621 1.72859 34.862 1.76928Z" fill="white"/>
<path d="M34.3936 0.382735C34.3936 0.412768 34.3846 0.442124 34.3679 0.467082C34.3512 0.492041 34.3274 0.511478 34.2996 0.522929C34.2718 0.53438 34.2412 0.53733 34.2117 0.531405C34.1822 0.52548 34.1551 0.510947 34.1339 0.489647C34.1127 0.468348 34.0983 0.441241 34.0925 0.411764C34.0868 0.382287 34.0899 0.351767 34.1016 0.324072C34.1132 0.296377 34.1328 0.272755 34.1579 0.2562C34.183 0.239645 34.2125 0.230903 34.2426 0.231082C34.2827 0.23132 34.3211 0.247403 34.3494 0.275818C34.3777 0.304233 34.3936 0.34267 34.3936 0.382735Z" fill="white"/>
<path d="M35.4398 1.48855C35.44 1.51858 35.4312 1.54799 35.4147 1.57305C35.3981 1.59811 35.3744 1.61768 35.3467 1.6293C35.3189 1.64092 35.2884 1.64405 35.2588 1.6383C35.2293 1.63255 35.2021 1.61818 35.1808 1.59701C35.1595 1.57583 35.1449 1.54881 35.139 1.51937C35.133 1.48993 35.136 1.45939 35.1475 1.43163C35.1589 1.40386 35.1784 1.38013 35.2034 1.36342C35.2284 1.34672 35.2578 1.3378 35.2879 1.3378C35.328 1.3378 35.3665 1.35365 35.395 1.3819C35.4235 1.41014 35.4396 1.44849 35.4398 1.48855Z" fill="white"/>
<path d="M36.9708 0.983044C36.9708 1.01304 36.9619 1.04236 36.9452 1.0673C36.9285 1.09224 36.9048 1.11167 36.877 1.12315C36.8492 1.13463 36.8187 1.13763 36.7892 1.13178C36.7598 1.12593 36.7327 1.11149 36.7114 1.09028C36.6902 1.06907 36.6757 1.04205 36.6699 1.01263C36.664 0.983212 36.667 0.95272 36.6785 0.925009C36.69 0.897298 36.7095 0.873612 36.7345 0.856949C36.7594 0.840285 36.7888 0.83139 36.8189 0.83139C36.8591 0.831627 36.8976 0.847681 36.926 0.87607C36.9545 0.90446 36.9705 0.942896 36.9708 0.983044Z" fill="white"/>
<path d="M37.4455 1.47139C37.4455 1.50138 37.4366 1.5307 37.4199 1.55564C37.4032 1.58058 37.3795 1.60002 37.3518 1.6115C37.324 1.62297 37.2934 1.62598 37.264 1.62013C37.2345 1.61427 37.2074 1.59983 37.1862 1.57862C37.1649 1.55741 37.1505 1.53039 37.1446 1.50097C37.1388 1.47155 37.1418 1.44106 37.1533 1.41335C37.1648 1.38564 37.1842 1.36195 37.2092 1.34529C37.2342 1.32863 37.2636 1.31973 37.2936 1.31973C37.3339 1.31973 37.3725 1.33571 37.401 1.36415C37.4295 1.39259 37.4455 1.43117 37.4455 1.47139Z" fill="white"/>
<path d="M38.4683 0.381847C38.4683 0.411842 38.4594 0.441162 38.4427 0.466102C38.426 0.491041 38.4023 0.510479 38.3745 0.521957C38.3467 0.533435 38.3162 0.536438 38.2867 0.530587C38.2572 0.524735 38.2302 0.510292 38.2089 0.489083C38.1877 0.467873 38.1732 0.440851 38.1674 0.411434C38.1615 0.382016 38.1645 0.351523 38.176 0.323812C38.1875 0.296101 38.207 0.272416 38.232 0.255752C38.2569 0.239088 38.2863 0.230194 38.3164 0.230194C38.3566 0.230194 38.3953 0.246172 38.4238 0.274612C38.4523 0.303053 38.4683 0.341626 38.4683 0.381847Z" fill="white"/>
<path d="M36.95 0.416149C36.95 0.446143 36.9411 0.475464 36.9244 0.500403C36.9077 0.525343 36.884 0.54478 36.8562 0.556259C36.8284 0.567737 36.7979 0.57074 36.7684 0.564889C36.739 0.559037 36.7119 0.544593 36.6906 0.523384C36.6694 0.502175 36.6549 0.475153 36.6491 0.445735C36.6432 0.416317 36.6462 0.385825 36.6577 0.358114C36.6692 0.330403 36.6887 0.306718 36.7137 0.290054C36.7386 0.27339 36.768 0.264496 36.7981 0.264496C36.8384 0.264496 36.877 0.280474 36.9055 0.308914C36.934 0.337355 36.95 0.375928 36.95 0.416149Z" fill="white"/>
<path d="M33.1538 1.1735C33.1529 1.20348 33.1431 1.23251 33.1257 1.25694C33.1082 1.28136 33.0839 1.30007 33.0559 1.31071C33.0278 1.32135 32.9972 1.32344 32.9679 1.31672C32.9386 1.30999 32.912 1.29475 32.8914 1.27292C32.8708 1.2511 32.8571 1.22366 32.8521 1.19409C32.8472 1.16452 32.8511 1.13413 32.8634 1.10678C32.8757 1.07942 32.8958 1.05633 32.9213 1.04041C32.9468 1.02449 32.9764 1.01646 33.0064 1.01734C33.0264 1.01792 33.046 1.02243 33.0642 1.03059C33.0824 1.03876 33.0988 1.05043 33.1125 1.06493C33.1262 1.07943 33.1369 1.09649 33.144 1.11512C33.1511 1.13375 33.1544 1.15359 33.1538 1.1735Z" fill="white"/>
<path d="M37.9375 2.55282C37.9375 2.61406 37.9193 2.67392 37.8852 2.72484C37.8511 2.77576 37.8027 2.81544 37.746 2.83888C37.6893 2.86231 37.627 2.86844 37.5668 2.8565C37.5066 2.84455 37.4514 2.81506 37.408 2.77176C37.3646 2.72846 37.3351 2.67329 37.3231 2.61323C37.3111 2.55316 37.3173 2.49091 37.3407 2.43433C37.3642 2.37775 37.404 2.3294 37.455 2.29538C37.506 2.26135 37.566 2.24319 37.6273 2.24319C37.7095 2.24343 37.7882 2.27613 37.8464 2.33414C37.9045 2.39216 37.9372 2.47078 37.9375 2.55282Z" fill="white"/>
<path d="M39.4268 4.07298C39.4268 4.14243 39.4062 4.21032 39.3675 4.26807C39.3289 4.32582 39.2739 4.37082 39.2097 4.3974C39.1454 4.42398 39.0747 4.43093 39.0064 4.41738C38.9382 4.40384 38.8755 4.37039 38.8263 4.32128C38.7771 4.27217 38.7436 4.2096 38.73 4.14149C38.7165 4.07337 38.7234 4.00277 38.7501 3.9386C38.7767 3.87444 38.8218 3.8196 38.8796 3.78101C38.9375 3.74243 39.0055 3.72183 39.0751 3.72183C39.1683 3.72183 39.2578 3.75883 39.3238 3.82468C39.3898 3.89054 39.4268 3.97985 39.4268 4.07298Z" fill="white"/>
<path d="M39.5371 5.12102C39.5373 5.21193 39.5105 5.30085 39.46 5.37653C39.4095 5.45221 39.3377 5.51124 39.2536 5.54616C39.1695 5.58107 39.077 5.5903 38.9876 5.57267C38.8983 5.55505 38.8162 5.51136 38.7517 5.44713C38.6873 5.38291 38.6433 5.30104 38.6255 5.21189C38.6077 5.12274 38.6167 5.03031 38.6515 4.94629C38.6863 4.86228 38.7453 4.79047 38.8211 4.73994C38.8968 4.68942 38.9858 4.66245 39.0769 4.66245C39.1988 4.66244 39.3157 4.71073 39.402 4.7967C39.4883 4.88268 39.5369 4.99931 39.5371 5.12102Z" fill="white"/>
<path d="M38.0541 0.594879C38.0534 0.693811 38.0234 0.790316 37.9678 0.872228C37.9122 0.95414 37.8336 1.01779 37.7418 1.05516C37.65 1.09252 37.5492 1.10193 37.4521 1.0822C37.355 1.06246 37.2659 1.01446 37.1961 0.944253C37.1263 0.874046 37.0788 0.784772 37.0598 0.687688C37.0407 0.590604 37.0508 0.490056 37.0889 0.39872C37.127 0.307385 37.1913 0.229352 37.2738 0.17446C37.3562 0.119568 37.4531 0.0902736 37.5522 0.090271C37.6184 0.0903889 37.6839 0.103548 37.745 0.128993C37.8061 0.154438 37.8615 0.191669 37.9081 0.23855C37.9548 0.285431 37.9917 0.34104 38.0167 0.402187C38.0418 0.463335 38.0545 0.528817 38.0541 0.594879Z" fill="white"/>
<path d="M39.236 0.748333C39.2362 0.821074 39.2147 0.892231 39.1744 0.952787C39.134 1.01334 39.0765 1.06057 39.0092 1.08849C38.9419 1.11641 38.8679 1.12376 38.7964 1.10962C38.7249 1.09547 38.6593 1.06046 38.6077 1.00902C38.5562 0.957588 38.5211 0.892041 38.507 0.820689C38.4928 0.749337 38.5002 0.675391 38.5281 0.608221C38.5561 0.541051 38.6034 0.48368 38.6641 0.443379C38.7247 0.403077 38.796 0.381659 38.8689 0.381837C38.9662 0.382075 39.0594 0.420765 39.1282 0.489444C39.197 0.558124 39.2358 0.651205 39.236 0.748333Z" fill="white"/>
<path d="M39.5037 1.98595C39.5039 2.08829 39.4736 2.18838 39.4168 2.27356C39.36 2.35874 39.2791 2.42518 39.1844 2.46447C39.0898 2.50375 38.9856 2.51412 38.885 2.49427C38.7844 2.47441 38.692 2.42522 38.6195 2.35292C38.5469 2.28062 38.4975 2.18845 38.4774 2.08809C38.4573 1.98773 38.4675 1.88369 38.5067 1.78912C38.5459 1.69455 38.6123 1.61372 38.6976 1.55684C38.7828 1.49996 38.883 1.46961 38.9855 1.46961C39.0535 1.46949 39.1209 1.48275 39.1838 1.50865C39.2466 1.53455 39.3037 1.57256 39.3519 1.62052C39.4 1.66848 39.4382 1.72544 39.4642 1.78814C39.4903 1.85085 39.5037 1.91807 39.5037 1.98595Z" fill="white"/>
<path d="M34.1123 2.0437C34.1123 2.14439 34.0824 2.24283 34.0264 2.32655C33.9703 2.41028 33.8907 2.47553 33.7975 2.51407C33.7043 2.5526 33.6018 2.56268 33.5028 2.54304C33.4039 2.52339 33.313 2.4749 33.2417 2.4037C33.1704 2.3325 33.1218 2.24178 33.1021 2.14302C33.0824 2.04426 33.0925 1.9419 33.1311 1.84887C33.1697 1.75584 33.2351 1.67632 33.319 1.62038C33.4028 1.56444 33.5015 1.53458 33.6023 1.53458C33.7375 1.53482 33.8671 1.58853 33.9627 1.68396C34.0583 1.77939 34.1121 1.90874 34.1123 2.0437Z" fill="white"/>
<path d="M35.5565 3.31922C35.5569 3.49409 35.5052 3.66513 35.4082 3.81069C35.3111 3.95626 35.173 4.06981 35.0112 4.13698C34.8495 4.20415 34.6714 4.2219 34.4996 4.18801C34.3277 4.15411 34.1698 4.07009 34.0458 3.94657C33.9219 3.82305 33.8374 3.66558 33.803 3.4941C33.7687 3.32262 33.7862 3.14484 33.8531 2.98325C33.9201 2.82167 34.0335 2.68354 34.1792 2.58635C34.3248 2.48916 34.496 2.43729 34.6712 2.43729C34.9057 2.43729 35.1306 2.53015 35.2966 2.69549C35.4625 2.86083 35.556 3.08515 35.5565 3.31922Z" fill="white"/>
<path d="M36.8189 2.28653C36.819 2.42601 36.7778 2.5624 36.7003 2.67846C36.6228 2.79452 36.5125 2.88502 36.3835 2.93852C36.2545 2.99202 36.1125 3.00611 35.9754 2.97901C35.8383 2.95191 35.7124 2.88483 35.6135 2.78627C35.5147 2.68771 35.4473 2.56209 35.42 2.42531C35.3927 2.28853 35.4066 2.14673 35.46 2.01785C35.5135 1.88897 35.604 1.77881 35.7202 1.70131C35.8363 1.6238 35.9729 1.58243 36.1126 1.58243C36.2998 1.58243 36.4793 1.65658 36.6117 1.7886C36.7441 1.92062 36.8186 2.09971 36.8189 2.28653Z" fill="white"/>
<path d="M33.3916 3.12875C33.3916 3.20392 33.3693 3.27739 33.3275 3.33989C33.2856 3.40239 33.2262 3.4511 33.1566 3.47986C33.087 3.50863 33.0105 3.51615 32.9367 3.50149C32.8628 3.48682 32.795 3.45063 32.7417 3.39748C32.6885 3.34433 32.6522 3.27662 32.6375 3.2029C32.6228 3.12918 32.6304 3.05276 32.6592 2.98332C32.688 2.91388 32.7368 2.85452 32.7994 2.81277C32.862 2.77101 32.9356 2.74872 33.0109 2.74872C33.1118 2.74896 33.2085 2.78907 33.2799 2.86029C33.3512 2.93151 33.3914 3.02804 33.3916 3.12875Z" fill="white"/>
<path d="M33.9107 4.07297C33.9107 4.14813 33.8884 4.22161 33.8465 4.28411C33.8047 4.3466 33.7452 4.39531 33.6757 4.42408C33.6061 4.45284 33.5296 4.46037 33.4557 4.4457C33.3819 4.43104 33.314 4.39484 33.2608 4.3417C33.2075 4.28855 33.1713 4.22083 33.1566 4.14711C33.1419 4.07339 33.1494 3.99698 33.1783 3.92754C33.2071 3.85809 33.2559 3.79874 33.3185 3.75698C33.3811 3.71522 33.4547 3.69293 33.53 3.69293C33.58 3.69281 33.6296 3.70256 33.6758 3.72162C33.7221 3.74068 33.7641 3.76866 33.7994 3.80398C33.8348 3.83929 33.8629 3.88123 33.8819 3.9274C33.901 3.97356 33.9108 4.02303 33.9107 4.07297Z" fill="white"/>
<path d="M35.1667 4.71659C35.1667 4.78355 35.1469 4.84899 35.1096 4.90466C35.0723 4.96033 35.0194 5.00372 34.9574 5.02934C34.8954 5.05496 34.8273 5.06166 34.7615 5.0486C34.6957 5.03554 34.6353 5.0033 34.5878 4.95596C34.5404 4.90862 34.5081 4.8483 34.495 4.78263C34.482 4.71697 34.4887 4.64891 34.5143 4.58705C34.54 4.5252 34.5835 4.47233 34.6392 4.43513C34.695 4.39794 34.7606 4.37808 34.8276 4.37808C34.9176 4.37808 35.0038 4.41375 35.0674 4.47723C35.131 4.54071 35.1667 4.62682 35.1667 4.71659Z" fill="white"/>
<path d="M36.3767 3.86446C36.3768 3.94203 36.3539 4.0179 36.3107 4.08241C36.2676 4.14692 36.2062 4.19715 36.1343 4.22671C36.0625 4.25627 35.9834 4.26381 35.9073 4.24839C35.8311 4.23297 35.7613 4.19527 35.7066 4.1401C35.652 4.08493 35.6151 4.01478 35.6005 3.93858C35.5859 3.86238 35.5944 3.78357 35.6249 3.7122C35.6553 3.64083 35.7063 3.58011 35.7715 3.53778C35.8366 3.49545 35.9128 3.47342 35.9905 3.47449C36.0934 3.47568 36.1916 3.51729 36.2639 3.5903C36.3361 3.6633 36.3767 3.76181 36.3767 3.86446Z" fill="white"/>
<path d="M38.4014 3.93937C38.4014 4.12184 38.3472 4.30021 38.2456 4.45192C38.1441 4.60363 37.9997 4.72188 37.8309 4.79171C37.662 4.86153 37.4762 4.8798 37.2969 4.84421C37.1176 4.80861 36.9529 4.72074 36.8237 4.59172C36.6944 4.4627 36.6064 4.29831 36.5708 4.11936C36.5351 3.9404 36.5534 3.7549 36.6234 3.58633C36.6933 3.41775 36.8118 3.27367 36.9637 3.17229C37.1157 3.07092 37.2944 3.01682 37.4772 3.01682C37.5986 3.0167 37.7188 3.04048 37.831 3.0868C37.9432 3.13312 38.0451 3.20107 38.1309 3.28676C38.2168 3.37245 38.2849 3.4742 38.3313 3.58619C38.3777 3.69817 38.4015 3.81819 38.4014 3.93937Z" fill="white"/>
<path d="M34.0201 5.15621C34.0201 5.25279 33.9914 5.34721 33.9377 5.42752C33.8839 5.50784 33.8075 5.57043 33.7181 5.60739C33.6287 5.64435 33.5303 5.65403 33.4354 5.63518C33.3405 5.61634 33.2534 5.56983 33.185 5.50153C33.1165 5.43323 33.0699 5.34621 33.0511 5.25148C33.0322 5.15675 33.0419 5.05856 33.0789 4.96932C33.1159 4.88008 33.1786 4.80381 33.2591 4.75015C33.3395 4.69649 33.4341 4.66785 33.5309 4.66785C33.5951 4.66785 33.6588 4.68048 33.7181 4.70502C33.7775 4.72956 33.8314 4.76554 33.8768 4.81088C33.9222 4.85623 33.9583 4.91007 33.9829 4.96932C34.0075 5.02857 34.0201 5.09207 34.0201 5.15621Z" fill="white"/>
<path d="M41.5184 1.76928C41.5184 1.88444 41.4842 1.99701 41.4201 2.09276C41.3561 2.18851 41.265 2.26313 41.1584 2.3072C41.0518 2.35127 40.9345 2.3628 40.8214 2.34034C40.7082 2.31787 40.6043 2.26242 40.5227 2.18099C40.4412 2.09956 40.3856 1.99582 40.3631 1.88287C40.3406 1.76993 40.3522 1.65286 40.3963 1.54647C40.4405 1.44008 40.5152 1.34914 40.6111 1.28517C40.707 1.22119 40.8198 1.18704 40.9352 1.18704C41.0899 1.18704 41.2382 1.24839 41.3476 1.35758C41.457 1.46677 41.5184 1.61486 41.5184 1.76928Z" fill="white"/>
<path d="M42.3775 3.86444C42.3775 4.04704 42.3233 4.22555 42.2217 4.37739C42.1201 4.52924 41.9756 4.6476 41.8067 4.71752C41.6377 4.78744 41.4517 4.80578 41.2723 4.77022C41.0929 4.73466 40.928 4.6468 40.7986 4.51774C40.6692 4.38869 40.581 4.22423 40.5452 4.04515C40.5094 3.86608 40.5276 3.68043 40.5975 3.51167C40.6674 3.34292 40.7858 3.19863 40.9378 3.09705C41.0898 2.99547 41.2686 2.94116 41.4515 2.94098C41.5731 2.94086 41.6935 2.96466 41.8058 3.01101C41.9182 3.05737 42.0202 3.12537 42.1062 3.21114C42.1922 3.2969 42.2605 3.39874 42.307 3.51084C42.3536 3.62294 42.3775 3.74309 42.3775 3.86444Z" fill="white"/>
<path d="M43.3858 7.1566C43.3858 7.45029 43.2985 7.73739 43.1351 7.98159C42.9716 8.22579 42.7393 8.41611 42.4675 8.52851C42.1957 8.6409 41.8966 8.6703 41.608 8.61301C41.3195 8.55571 41.0544 8.41428 40.8464 8.20661C40.6383 7.99894 40.4967 7.73435 40.4393 7.4463C40.3819 7.15825 40.4113 6.85968 40.5239 6.58834C40.6365 6.317 40.8272 6.08509 41.0718 5.92192C41.3164 5.75875 41.604 5.67166 41.8982 5.67166C42.2928 5.67166 42.6711 5.82811 42.9501 6.10659C43.2291 6.38507 43.3858 6.76277 43.3858 7.1566Z" fill="white"/>
<path d="M42.5104 2.24322C42.5104 2.31464 42.4892 2.38445 42.4495 2.44383C42.4097 2.5032 42.3532 2.54949 42.2871 2.57681C42.2211 2.60414 42.1483 2.61129 42.0782 2.59736C42.008 2.58343 41.9435 2.54904 41.893 2.49854C41.8424 2.44804 41.8079 2.38371 41.794 2.31366C41.78 2.24362 41.7872 2.17102 41.8145 2.10504C41.8419 2.03906 41.8883 1.98267 41.9478 1.94299C42.0073 1.90332 42.0772 1.88214 42.1487 1.88214C42.2447 1.88214 42.3367 1.92018 42.4045 1.9879C42.4723 2.05561 42.5104 2.14746 42.5104 2.24322Z" fill="white"/>
<path d="M40.5183 2.99065C40.5183 3.0235 40.5085 3.05561 40.4903 3.08293C40.472 3.11024 40.446 3.13153 40.4156 3.1441C40.3852 3.15668 40.3517 3.15996 40.3195 3.15356C40.2872 3.14715 40.2575 3.13133 40.2343 3.1081C40.211 3.08487 40.1951 3.05527 40.1887 3.02305C40.1823 2.99084 40.1856 2.95744 40.1982 2.92709C40.2108 2.89674 40.2321 2.8708 40.2595 2.85255C40.2868 2.8343 40.319 2.82455 40.3519 2.82455C40.396 2.82455 40.4384 2.84205 40.4696 2.8732C40.5008 2.90435 40.5183 2.9466 40.5183 2.99065Z" fill="white"/>
<path d="M41.381 5.2871C41.381 5.31995 41.3712 5.35206 41.3529 5.37938C41.3347 5.40669 41.3087 5.42798 41.2783 5.44055C41.2479 5.45312 41.2144 5.45641 41.1821 5.45C41.1499 5.44359 41.1202 5.42778 41.0969 5.40455C41.0737 5.38132 41.0578 5.35172 41.0514 5.3195C41.045 5.28728 41.0483 5.25389 41.0609 5.22354C41.0735 5.19319 41.0948 5.16725 41.1222 5.14899C41.1495 5.13074 41.1817 5.121 41.2146 5.121C41.2364 5.121 41.2581 5.1253 41.2783 5.13365C41.2985 5.14199 41.3168 5.15423 41.3322 5.16965C41.3477 5.18507 41.36 5.20338 41.3683 5.22354C41.3767 5.24369 41.381 5.26529 41.381 5.2871Z" fill="white"/>
<path d="M42.2301 4.95763C42.2301 4.99048 42.2203 5.02259 42.2021 5.04991C42.1838 5.07722 42.1578 5.09851 42.1274 5.11108C42.097 5.12366 42.0635 5.12694 42.0313 5.12054C41.999 5.11413 41.9693 5.09831 41.9461 5.07508C41.9228 5.05185 41.9069 5.02225 41.9005 4.99003C41.8941 4.95781 41.8974 4.92442 41.91 4.89407C41.9226 4.86372 41.9439 4.83778 41.9713 4.81953C41.9986 4.80128 42.0308 4.79153 42.0637 4.79153C42.1078 4.79153 42.1502 4.80903 42.1814 4.84018C42.2126 4.87133 42.2301 4.91358 42.2301 4.95763Z" fill="white"/>
<path d="M41.0482 8.85186C41.0482 8.88471 41.0384 8.91682 41.0202 8.94414C41.0019 8.97145 40.9759 8.99274 40.9455 9.00531C40.9151 9.01788 40.8816 9.02117 40.8494 9.01476C40.8171 9.00835 40.7874 8.99253 40.7642 8.9693C40.7409 8.94608 40.725 8.91648 40.7186 8.88426C40.7122 8.85204 40.7155 8.81864 40.7281 8.78829C40.7407 8.75794 40.762 8.732 40.7894 8.71375C40.8167 8.6955 40.8489 8.68576 40.8818 8.68576C40.9259 8.68576 40.9683 8.70326 40.9995 8.73441C41.0307 8.76556 41.0482 8.80781 41.0482 8.85186Z" fill="white"/>
<path d="M43.9021 8.06923C43.9021 8.10208 43.8924 8.1342 43.8741 8.16151C43.8558 8.18883 43.8298 8.21011 43.7994 8.22269C43.769 8.23526 43.7356 8.23855 43.7033 8.23214C43.671 8.22573 43.6414 8.20991 43.6181 8.18668C43.5948 8.16345 43.579 8.13386 43.5726 8.10164C43.5661 8.06942 43.5694 8.03602 43.582 8.00567C43.5946 7.97532 43.6159 7.94938 43.6433 7.93113C43.6707 7.91288 43.7028 7.90314 43.7357 7.90314C43.7799 7.90314 43.8222 7.92064 43.8534 7.95179C43.8846 7.98293 43.9021 8.02518 43.9021 8.06923Z" fill="white"/>
<path d="M43.6978 3.31923C43.6978 3.35208 43.688 3.3842 43.6697 3.41151C43.6514 3.43883 43.6255 3.46012 43.5951 3.47269C43.5646 3.48526 43.5312 3.48855 43.4989 3.48214C43.4666 3.47573 43.437 3.45991 43.4137 3.43668C43.3905 3.41345 43.3746 3.38386 43.3682 3.35164C43.3618 3.31942 43.3651 3.28602 43.3777 3.25567C43.3902 3.22532 43.4116 3.19938 43.4389 3.18113C43.4663 3.16288 43.4985 3.15314 43.5314 3.15314C43.5755 3.15314 43.6178 3.17064 43.649 3.20179C43.6802 3.23293 43.6978 3.27518 43.6978 3.31923Z" fill="white"/>
<path d="M44.2349 5.58049C44.2353 5.61342 44.2258 5.6457 44.2077 5.67325C44.1897 5.70081 44.1638 5.72238 44.1335 5.73522C44.1031 5.74807 44.0696 5.75162 44.0372 5.74542C44.0048 5.73921 43.975 5.72354 43.9515 5.70038C43.9281 5.67723 43.912 5.64764 43.9055 5.61537C43.8989 5.5831 43.9021 5.54961 43.9146 5.51916C43.9272 5.4887 43.9485 5.46265 43.9759 5.44432C44.0033 5.42599 44.0355 5.4162 44.0685 5.4162C44.1123 5.4162 44.1544 5.43345 44.1855 5.46421C44.2167 5.49497 44.2344 5.53675 44.2349 5.58049Z" fill="white"/>
<path d="M40.4071 6.47144C40.4071 6.51857 40.3931 6.56465 40.3668 6.60384C40.3406 6.64303 40.3033 6.67357 40.2597 6.69161C40.2161 6.70965 40.1681 6.71436 40.1218 6.70517C40.0755 6.69597 40.0329 6.67328 39.9995 6.63995C39.9661 6.60662 39.9434 6.56416 39.9342 6.51793C39.925 6.4717 39.9297 6.42378 39.9478 6.38024C39.9658 6.33669 39.9964 6.29947 40.0357 6.27329C40.075 6.2471 40.1211 6.23312 40.1683 6.23312C40.2317 6.23312 40.2924 6.25823 40.3371 6.30292C40.3819 6.34762 40.4071 6.40823 40.4071 6.47144Z" fill="white"/>
<path d="M39.7614 1.18706C39.7614 1.21991 39.7516 1.25203 39.7334 1.27934C39.7151 1.30665 39.6891 1.32794 39.6587 1.34052C39.6283 1.35309 39.5948 1.35638 39.5626 1.34997C39.5303 1.34356 39.5006 1.32774 39.4774 1.30451C39.4541 1.28128 39.4382 1.25169 39.4318 1.21947C39.4254 1.18725 39.4287 1.15385 39.4413 1.1235C39.4539 1.09315 39.4752 1.06721 39.5026 1.04896C39.5299 1.03071 39.5621 1.02097 39.595 1.02097C39.6391 1.02097 39.6815 1.03846 39.7127 1.06961C39.7439 1.10076 39.7614 1.14301 39.7614 1.18706Z" fill="white"/>
<path d="M43.3605 3.01141C43.3605 3.08282 43.3392 3.15263 43.2995 3.21201C43.2598 3.27139 43.2033 3.31767 43.1372 3.345C43.0711 3.37233 42.9983 3.37948 42.9282 3.36555C42.858 3.35162 42.7936 3.31723 42.743 3.26673C42.6924 3.21623 42.6579 3.15189 42.644 3.08185C42.63 3.01181 42.6372 2.93921 42.6646 2.87323C42.6919 2.80725 42.7383 2.75086 42.7978 2.71118C42.8573 2.67151 42.9272 2.65033 42.9987 2.65033C43.0947 2.65033 43.1867 2.68837 43.2545 2.75609C43.3224 2.8238 43.3605 2.91564 43.3605 3.01141Z" fill="white"/>
<path d="M43.1344 4.07297C43.1346 4.13817 43.1154 4.20196 43.0792 4.25626C43.043 4.31057 42.9916 4.35294 42.9313 4.37801C42.871 4.40309 42.8046 4.40974 42.7405 4.39713C42.6764 4.38452 42.6175 4.35321 42.5713 4.30717C42.525 4.26113 42.4935 4.20242 42.4807 4.13848C42.4679 4.07454 42.4743 4.00825 42.4993 3.94799C42.5243 3.88773 42.5666 3.83622 42.6209 3.79998C42.6752 3.76373 42.739 3.74439 42.8043 3.74438C42.8917 3.74438 42.9755 3.77897 43.0374 3.84057C43.0993 3.90216 43.1342 3.98574 43.1344 4.07297Z" fill="white"/>
<path d="M39.595 3.48621C39.7928 3.48621 39.9531 3.32616 39.9531 3.12874C39.9531 2.93131 39.7928 2.77127 39.595 2.77127C39.3972 2.77127 39.2369 2.93131 39.2369 3.12874C39.2369 3.32616 39.3972 3.48621 39.595 3.48621Z" fill="white"/>
<path d="M40.4297 1.09587C40.4297 1.14747 40.4143 1.19791 40.3856 1.24081C40.3569 1.28371 40.3161 1.31715 40.2683 1.33689C40.2206 1.35664 40.168 1.36181 40.1174 1.35174C40.0667 1.34167 40.0201 1.31683 39.9835 1.28034C39.947 1.24386 39.9221 1.19737 39.912 1.14677C39.9019 1.09616 39.9071 1.04371 39.9269 0.996039C39.9467 0.948369 39.9802 0.907625 40.0231 0.878959C40.0661 0.850293 40.1166 0.834993 40.1683 0.834993C40.2027 0.834874 40.2367 0.84154 40.2685 0.854608C40.3002 0.867677 40.3291 0.886888 40.3534 0.911137C40.3777 0.935386 40.3969 0.964192 40.41 0.995898C40.4231 1.0276 40.4298 1.06158 40.4297 1.09587Z" fill="white"/>
<path d="M40.4297 4.38078C40.4297 4.43238 40.4143 4.48282 40.3856 4.52572C40.3569 4.56862 40.3161 4.60206 40.2683 4.62181C40.2206 4.64155 40.168 4.64672 40.1174 4.63665C40.0667 4.62658 40.0201 4.60174 39.9835 4.56525C39.947 4.52877 39.9221 4.48228 39.912 4.43168C39.9019 4.38107 39.9071 4.32862 39.9269 4.28095C39.9467 4.23328 39.9802 4.19254 40.0231 4.16387C40.0661 4.1352 40.1166 4.1199 40.1683 4.1199C40.2376 4.1199 40.3041 4.14739 40.3531 4.19631C40.4021 4.24524 40.4297 4.31159 40.4297 4.38078Z" fill="white"/>
<path d="M40.4297 5.58049C40.4297 5.63209 40.4143 5.68253 40.3856 5.72543C40.3569 5.76833 40.3161 5.80177 40.2683 5.82151C40.2206 5.84126 40.168 5.84642 40.1174 5.83636C40.0667 5.82629 40.0201 5.80144 39.9835 5.76496C39.947 5.72848 39.9221 5.68199 39.912 5.63139C39.9019 5.58078 39.9071 5.52833 39.9269 5.48066C39.9467 5.43299 39.9802 5.39224 40.0231 5.36358C40.0661 5.33491 40.1166 5.31961 40.1683 5.31961C40.2376 5.31961 40.3041 5.3471 40.3531 5.39602C40.4021 5.44495 40.4297 5.5113 40.4297 5.58049Z" fill="white"/>
<path d="M43.365 5.31961C43.365 5.39102 43.3438 5.46083 43.304 5.52021C43.2643 5.57959 43.2078 5.62587 43.1417 5.6532C43.0756 5.68053 43.0029 5.68768 42.9327 5.67375C42.8625 5.65982 42.7981 5.62543 42.7475 5.57493C42.6969 5.52443 42.6625 5.46009 42.6485 5.39005C42.6345 5.32001 42.6417 5.24741 42.6691 5.18143C42.6965 5.11545 42.7428 5.05906 42.8023 5.01938C42.8618 4.9797 42.9317 4.95853 43.0033 4.95853C43.0992 4.95853 43.1912 4.99657 43.259 5.06428C43.3269 5.132 43.365 5.22384 43.365 5.31961Z" fill="white"/>
<path d="M45.4774 6.47146C45.4774 6.58751 45.4429 6.70095 45.3783 6.79744C45.3137 6.89393 45.2219 6.96914 45.1145 7.01355C45.0071 7.05796 44.889 7.06958 44.7749 7.04694C44.6609 7.0243 44.5562 6.96842 44.474 6.88636C44.3918 6.8043 44.3358 6.69975 44.3131 6.58593C44.2904 6.47211 44.3021 6.35413 44.3466 6.24692C44.3911 6.1397 44.4664 6.04806 44.5631 5.98359C44.6597 5.91912 44.7734 5.8847 44.8896 5.8847C45.0455 5.8847 45.195 5.94652 45.3052 6.05656C45.4155 6.1666 45.4774 6.31584 45.4774 6.47146Z" fill="white"/>
<path d="M45.7776 7.62059C45.7776 7.6959 45.7553 7.76951 45.7134 7.83214C45.6715 7.89476 45.6119 7.94359 45.5423 7.97245C45.4726 8.00131 45.3959 8.0089 45.3219 7.99428C45.2479 7.97965 45.1799 7.94346 45.1265 7.89028C45.0731 7.83709 45.0367 7.7693 45.0218 7.69546C45.007 7.62163 45.0144 7.54506 45.0432 7.47544C45.0719 7.40582 45.1207 7.34626 45.1833 7.30429C45.246 7.26233 45.3197 7.23983 45.3951 7.23966C45.4453 7.23954 45.495 7.2493 45.5414 7.26839C45.5878 7.28748 45.63 7.31553 45.6655 7.35091C45.7011 7.3863 45.7293 7.42833 45.7485 7.47461C45.7677 7.52088 45.7776 7.57049 45.7776 7.62059Z" fill="white"/>
<path d="M43.384 9.0667C43.384 9.14204 43.3616 9.21569 43.3197 9.27834C43.2777 9.34098 43.2181 9.38981 43.1484 9.41864C43.0787 9.44747 43.0019 9.45502 42.9279 9.44032C42.8539 9.42562 42.7859 9.38934 42.7325 9.33606C42.6792 9.28279 42.6428 9.21491 42.6281 9.14102C42.6134 9.06712 42.6209 8.99053 42.6498 8.92092C42.6787 8.85131 42.7276 8.79182 42.7904 8.74996C42.8531 8.7081 42.9269 8.68576 43.0024 8.68576C43.0525 8.68564 43.1022 8.69541 43.1485 8.71452C43.1949 8.73362 43.237 8.76167 43.2725 8.79707C43.3079 8.83247 43.336 8.87451 43.3552 8.92078C43.3743 8.96705 43.3841 9.01664 43.384 9.0667Z" fill="white"/>
<path d="M44.7124 4.62273C44.7124 4.76306 44.6707 4.90024 44.5926 5.01692C44.5145 5.1336 44.4035 5.22454 44.2736 5.27824C44.1437 5.33194 44.0008 5.34599 43.8629 5.31862C43.7251 5.29124 43.5984 5.22367 43.499 5.12444C43.3996 5.02521 43.3319 4.89878 43.3045 4.76115C43.2771 4.62352 43.2911 4.48086 43.3449 4.35121C43.3987 4.22156 43.4898 4.11075 43.6067 4.03278C43.7236 3.95482 43.861 3.91321 44.0016 3.91321C44.095 3.91309 44.1875 3.93136 44.2737 3.96698C44.36 4.00259 44.4384 4.05485 44.5045 4.12076C44.5705 4.18667 44.6228 4.26493 44.6585 4.35107C44.6942 4.4372 44.7125 4.52952 44.7124 4.62273Z" fill="white"/>
<path d="M45.746 9.16692C45.746 9.37098 45.6853 9.57047 45.5718 9.74014C45.4582 9.90982 45.2968 10.0421 45.1079 10.1202C44.919 10.1983 44.7112 10.2187 44.5107 10.1789C44.3102 10.1391 44.1261 10.0408 43.9815 9.8965C43.837 9.7522 43.7385 9.56835 43.6986 9.36821C43.6588 9.16806 43.6792 8.9606 43.7574 8.77207C43.8357 8.58354 43.9682 8.42239 44.1381 8.30902C44.3081 8.19564 44.5079 8.13513 44.7124 8.13513C44.9865 8.13513 45.2494 8.24384 45.4432 8.43733C45.6371 8.63083 45.746 8.89327 45.746 9.16692Z" fill="white"/>
<path d="M45.6085 10.8143C45.6085 10.8976 45.5838 10.9789 45.5374 11.0481C45.4911 11.1173 45.4252 11.1712 45.3482 11.2031C45.2711 11.2349 45.1863 11.2431 45.1046 11.2268C45.0228 11.2105 44.9477 11.1704 44.8888 11.1115C44.8299 11.0525 44.7899 10.9775 44.7737 10.8958C44.7576 10.8142 44.766 10.7296 44.7981 10.6527C44.8301 10.5759 44.8842 10.5102 44.9537 10.4641C45.0231 10.418 45.1046 10.3935 45.188 10.3937C45.2433 10.3937 45.2981 10.4046 45.3492 10.4257C45.4002 10.4469 45.4466 10.4779 45.4857 10.5169C45.5247 10.556 45.5557 10.6024 45.5768 10.6534C45.5978 10.7045 45.6086 10.7591 45.6085 10.8143Z" fill="white"/>
<path d="M42.1957 9.67873C42.1957 9.78586 42.1639 9.89057 42.1043 9.97964C42.0447 10.0687 41.9599 10.1381 41.8608 10.1791C41.7617 10.2201 41.6526 10.2308 41.5473 10.2099C41.4421 10.189 41.3454 10.1375 41.2695 10.0617C41.1936 9.98597 41.142 9.88946 41.121 9.7844C41.1001 9.67934 41.1108 9.57043 41.1519 9.47147C41.193 9.3725 41.2625 9.28791 41.3517 9.22839C41.441 9.16888 41.5459 9.13712 41.6532 9.13712C41.7971 9.13712 41.9351 9.19418 42.0368 9.29575C42.1386 9.39732 42.1957 9.53509 42.1957 9.67873Z" fill="white"/>
<path d="M40.9695 10.2005C40.9695 10.2507 40.9546 10.2997 40.9267 10.3414C40.8988 10.3831 40.8591 10.4156 40.8127 10.4348C40.7662 10.454 40.7151 10.4591 40.6659 10.4493C40.6166 10.4395 40.5713 10.4153 40.5358 10.3799C40.5002 10.3444 40.476 10.2992 40.4662 10.25C40.4564 10.2008 40.4614 10.1498 40.4807 10.1034C40.4999 10.0571 40.5325 10.0175 40.5743 9.98959C40.616 9.96171 40.6652 9.94684 40.7154 9.94684C40.7828 9.94684 40.8475 9.97356 40.8951 10.0211C40.9428 10.0687 40.9695 10.1332 40.9695 10.2005Z" fill="white"/>
<path d="M41.4452 10.7349C41.4454 10.7853 41.4306 10.8346 41.4026 10.8766C41.3747 10.9185 41.335 10.9513 41.2884 10.9707C41.2418 10.9901 41.1905 10.9953 41.141 10.9856C41.0915 10.9759 41.0459 10.9517 41.0102 10.9161C40.9744 10.8806 40.95 10.8352 40.9401 10.7858C40.9302 10.7364 40.9352 10.6852 40.9545 10.6386C40.9738 10.592 41.0064 10.5522 41.0484 10.5242C41.0904 10.4962 41.1397 10.4812 41.1902 10.4812C41.2236 10.4811 41.2568 10.4876 41.2877 10.5003C41.3186 10.513 41.3467 10.5316 41.3704 10.5552C41.3941 10.5788 41.4129 10.6068 41.4258 10.6376C41.4386 10.6684 41.4452 10.7015 41.4452 10.7349Z" fill="white"/>
<path d="M44.2693 13.7301C44.2693 13.8033 44.2475 13.8748 44.2068 13.9357C44.166 13.9965 44.1081 14.044 44.0404 14.072C43.9726 14.1 43.8981 14.1073 43.8262 14.0931C43.7543 14.0788 43.6882 14.0435 43.6363 13.9918C43.5845 13.94 43.5492 13.8741 43.5349 13.8023C43.5206 13.7305 43.5279 13.6561 43.556 13.5884C43.584 13.5208 43.6316 13.463 43.6925 13.4223C43.7535 13.3817 43.8252 13.36 43.8985 13.36C43.9968 13.36 44.0911 13.3989 44.1607 13.4684C44.2302 13.5378 44.2693 13.6319 44.2693 13.7301Z" fill="white"/>
<path d="M43.1769 12.0537C43.1767 12.1346 43.1525 12.2135 43.1072 12.2806C43.062 12.3477 42.9979 12.3998 42.9229 12.4305C42.8479 12.4611 42.7655 12.4687 42.6862 12.4525C42.6068 12.4363 42.5341 12.3969 42.4772 12.3394C42.4203 12.2818 42.3819 12.2087 42.3667 12.1293C42.3515 12.0499 42.3603 11.9677 42.3919 11.8933C42.4236 11.8189 42.4767 11.7555 42.5445 11.7113C42.6123 11.6671 42.6917 11.6439 42.7727 11.6448C42.8805 11.6458 42.9836 11.6893 43.0594 11.766C43.1351 11.8426 43.1774 11.9461 43.1769 12.0537Z" fill="white"/>
<path d="M44.5044 10.9389C44.5044 11.0385 44.4748 11.1359 44.4193 11.2187C44.3639 11.3016 44.2851 11.3661 44.1929 11.4043C44.1007 11.4424 43.9992 11.4524 43.9014 11.4329C43.8035 11.4135 43.7136 11.3655 43.643 11.2951C43.5724 11.2246 43.5244 11.1349 43.5049 11.0372C43.4854 10.9394 43.4954 10.8382 43.5336 10.7461C43.5718 10.6541 43.6365 10.5754 43.7195 10.5201C43.8024 10.4647 43.9 10.4352 43.9998 10.4352C44.0661 10.4351 44.1318 10.448 44.193 10.4733C44.2543 10.4986 44.31 10.5357 44.3569 10.5824C44.4037 10.6292 44.4409 10.6848 44.4662 10.746C44.4915 10.8072 44.5045 10.8727 44.5044 10.9389Z" fill="white"/>
<path d="M43.0838 10.8143C43.0838 10.937 43.0473 11.0569 42.9791 11.1589C42.9108 11.2609 42.8138 11.3403 42.7003 11.3873C42.5867 11.4342 42.4618 11.4465 42.3413 11.4226C42.2208 11.3986 42.1101 11.3396 42.0232 11.2529C41.9363 11.1661 41.8772 11.0556 41.8532 10.9353C41.8292 10.815 41.8415 10.6903 41.8886 10.577C41.9356 10.4637 42.0152 10.3668 42.1174 10.2987C42.2195 10.2306 42.3396 10.1942 42.4625 10.1942C42.6273 10.1942 42.7853 10.2595 42.9018 10.3758C43.0183 10.4921 43.0838 10.6499 43.0838 10.8143Z" fill="white"/>
<path d="M41.7707 11.9662C41.7707 12.1126 41.7272 12.2557 41.6458 12.3774C41.5643 12.4991 41.4485 12.594 41.313 12.65C41.1775 12.7061 41.0284 12.7207 40.8846 12.6922C40.7407 12.6636 40.6086 12.5931 40.5049 12.4896C40.4012 12.3861 40.3306 12.2542 40.3019 12.1106C40.2733 11.967 40.288 11.8182 40.3441 11.6829C40.4003 11.5476 40.4953 11.432 40.6173 11.3507C40.7392 11.2694 40.8826 11.226 41.0292 11.226C41.2259 11.226 41.4145 11.3039 41.5535 11.4428C41.6926 11.5816 41.7707 11.7698 41.7707 11.9662Z" fill="white"/>
<path d="M39.879 12.0682C39.879 12.1139 39.8654 12.1586 39.84 12.1966C39.8145 12.2346 39.7784 12.2642 39.7361 12.2817C39.6938 12.2992 39.6472 12.3038 39.6023 12.2948C39.5574 12.2859 39.5162 12.2639 39.4838 12.2316C39.4514 12.1993 39.4294 12.1581 39.4204 12.1133C39.4115 12.0684 39.4161 12.022 39.4336 11.9798C39.4511 11.9375 39.4808 11.9014 39.5189 11.876C39.5569 11.8506 39.6017 11.8371 39.6475 11.8371C39.7089 11.8371 39.7677 11.8614 39.8112 11.9048C39.8546 11.9481 39.879 12.0069 39.879 12.0682Z" fill="white"/>
<path d="M42.9418 13.5928C42.9418 13.7789 42.8865 13.9608 42.7829 14.1155C42.6793 14.2702 42.5321 14.3908 42.3599 14.4619C42.1877 14.5331 41.9982 14.5517 41.8154 14.5153C41.6325 14.4789 41.4647 14.3893 41.3329 14.2576C41.2012 14.126 41.1115 13.9583 41.0752 13.7758C41.039 13.5933 41.0578 13.4041 41.1292 13.2323C41.2007 13.0604 41.3216 12.9136 41.4767 12.8103C41.6318 12.7071 41.814 12.652 42.0004 12.6522C42.1241 12.6522 42.2466 12.6766 42.3609 12.7238C42.4751 12.7711 42.579 12.8404 42.6664 12.9278C42.7538 13.0151 42.8231 13.1188 42.8704 13.2329C42.9176 13.3471 42.9419 13.4694 42.9418 13.5928Z" fill="white"/>
<path d="M44.8463 12.9053C45.1261 12.604 45.1082 12.1334 44.8064 11.8541C44.5046 11.5748 44.0332 11.5926 43.7534 11.8939C43.4737 12.1952 43.4915 12.6658 43.7933 12.9451C44.0951 13.2244 44.5666 13.2065 44.8463 12.9053Z" fill="white"/>
<path d="M40.6151 13.4114C40.6151 13.4842 40.5934 13.5554 40.5529 13.616C40.5123 13.6766 40.4547 13.7238 40.3873 13.7517C40.3199 13.7795 40.2457 13.7868 40.1741 13.7726C40.1026 13.7584 40.0368 13.7233 39.9852 13.6718C39.9336 13.6203 39.8985 13.5547 39.8843 13.4832C39.87 13.4118 39.8773 13.3377 39.9052 13.2704C39.9332 13.2032 39.9805 13.1456 40.0411 13.1052C40.1018 13.0647 40.1731 13.0431 40.2461 13.0431C40.2946 13.0431 40.3425 13.0526 40.3873 13.0711C40.4321 13.0896 40.4727 13.1168 40.507 13.151C40.5413 13.1852 40.5684 13.2258 40.587 13.2704C40.6055 13.3151 40.6151 13.363 40.6151 13.4114Z" fill="white"/>
<path d="M42.7772 15.3043C42.7772 15.397 42.7497 15.4877 42.698 15.5647C42.6464 15.6418 42.5731 15.7018 42.4873 15.7373C42.4015 15.7727 42.3071 15.7819 42.216 15.7638C42.1249 15.7456 42.0413 15.7009 41.9757 15.6353C41.9101 15.5697 41.8655 15.4861 41.8475 15.3952C41.8295 15.3043 41.8389 15.21 41.8745 15.1244C41.9102 15.0388 41.9705 14.9657 42.0478 14.9144C42.1251 14.863 42.2159 14.8357 42.3088 14.8358C42.3704 14.8358 42.4314 14.848 42.4882 14.8715C42.5451 14.8951 42.5968 14.9296 42.6403 14.9731C42.6838 15.0166 42.7183 15.0683 42.7418 15.1251C42.7653 15.182 42.7773 15.2429 42.7772 15.3043Z" fill="white"/>
<path d="M43.696 14.5335C43.696 14.5899 43.6792 14.645 43.6478 14.6919C43.6164 14.7388 43.5718 14.7754 43.5196 14.797C43.4673 14.8186 43.4099 14.8242 43.3544 14.8132C43.299 14.8022 43.2481 14.775 43.2081 14.7352C43.1682 14.6953 43.141 14.6444 43.1299 14.5891C43.1189 14.5338 43.1246 14.4764 43.1462 14.4243C43.1678 14.3722 43.2044 14.3276 43.2514 14.2963C43.2984 14.2649 43.3537 14.2482 43.4102 14.2482C43.4477 14.2482 43.4849 14.2556 43.5196 14.2699C43.5542 14.2842 43.5857 14.3053 43.6123 14.3317C43.6388 14.3582 43.6598 14.3897 43.6742 14.4243C43.6886 14.4589 43.696 14.496 43.696 14.5335Z" fill="white"/>
<path d="M43.1272 15.0146C43.1272 15.036 43.1208 15.0569 43.1089 15.0748C43.097 15.0926 43.08 15.1065 43.0602 15.1147C43.0403 15.1229 43.0185 15.125 42.9975 15.1208C42.9764 15.1166 42.9571 15.1063 42.9419 15.0912C42.9267 15.076 42.9164 15.0567 42.9122 15.0357C42.908 15.0147 42.9102 14.9929 42.9184 14.9731C42.9266 14.9533 42.9405 14.9364 42.9584 14.9245C42.9762 14.9126 42.9972 14.9062 43.0186 14.9062C43.0474 14.9062 43.075 14.9177 43.0954 14.938C43.1157 14.9583 43.1272 14.9858 43.1272 15.0146Z" fill="white"/>
<path d="M41.7436 14.9442C41.7436 14.977 41.7338 15.0091 41.7156 15.0365C41.6973 15.0638 41.6713 15.0851 41.6409 15.0976C41.6105 15.1102 41.577 15.1135 41.5448 15.1071C41.5125 15.1007 41.4828 15.0848 41.4596 15.0616C41.4363 15.0384 41.4204 15.0088 41.414 14.9766C41.4076 14.9444 41.4109 14.911 41.4235 14.8806C41.4361 14.8503 41.4574 14.8243 41.4848 14.8061C41.5121 14.7878 41.5443 14.7781 41.5772 14.7781C41.6213 14.7781 41.6637 14.7956 41.6949 14.8267C41.7261 14.8579 41.7436 14.9001 41.7436 14.9442Z" fill="white"/>
<path d="M41.7255 15.9778C41.7257 16.0932 41.6916 16.2061 41.6274 16.3021C41.5633 16.3981 41.4721 16.473 41.3653 16.5173C41.2585 16.5615 41.141 16.5731 41.0276 16.5507C40.9142 16.5282 40.81 16.4726 40.7283 16.391C40.6465 16.3094 40.5909 16.2054 40.5684 16.0922C40.5459 15.979 40.5575 15.8617 40.6018 15.7551C40.6461 15.6485 40.7212 15.5574 40.8174 15.4934C40.9136 15.4294 41.0266 15.3954 41.1423 15.3955C41.2969 15.3955 41.4453 15.4569 41.5547 15.5661C41.6641 15.6753 41.7255 15.8234 41.7255 15.9778Z" fill="white"/>
<path d="M40.3836 16.3127C40.3836 16.4982 40.3285 16.6795 40.2252 16.8337C40.122 16.988 39.9752 17.1082 39.8036 17.1792C39.6319 17.2502 39.443 17.2687 39.2607 17.2325C39.0785 17.1964 38.911 17.107 38.7796 16.9759C38.6482 16.8447 38.5588 16.6776 38.5225 16.4956C38.4863 16.3137 38.5049 16.1251 38.576 15.9537C38.6471 15.7824 38.7675 15.6359 38.922 15.5328C39.0765 15.4298 39.2582 15.3748 39.444 15.3748C39.6932 15.3748 39.9322 15.4736 40.1084 15.6495C40.2846 15.8254 40.3836 16.0639 40.3836 16.3127Z" fill="white"/>
<path d="M38.1084 13.9729C38.1084 14.1583 38.0533 14.3395 37.9502 14.4937C37.8471 14.6478 37.7005 14.7681 37.529 14.8391C37.3575 14.9102 37.1687 14.9289 36.9865 14.893C36.8043 14.857 36.6369 14.7679 36.5054 14.637C36.3739 14.5061 36.2842 14.3393 36.2477 14.1575C36.2111 13.9758 36.2293 13.7873 36.3 13.6158C36.3707 13.4444 36.4907 13.2977 36.6449 13.1944C36.799 13.091 36.9804 13.0355 37.1661 13.035C37.2897 13.0346 37.4122 13.0586 37.5265 13.1056C37.6408 13.1526 37.7447 13.2216 37.8322 13.3087C37.9198 13.3959 37.9892 13.4994 38.0366 13.6133C38.084 13.7273 38.1084 13.8495 38.1084 13.9729Z" fill="white"/>
<path d="M39.2858 13.7797C39.2858 13.8665 39.26 13.9513 39.2117 14.0234C39.1634 14.0956 39.0948 14.1518 39.0145 14.185C38.9342 14.2182 38.8458 14.2269 38.7605 14.21C38.6753 14.193 38.597 14.1513 38.5355 14.0899C38.4741 14.0285 38.4322 13.9504 38.4152 13.8653C38.3983 13.7802 38.407 13.692 38.4402 13.6118C38.4735 13.5316 38.5298 13.4631 38.6021 13.4149C38.6744 13.3667 38.7594 13.341 38.8463 13.341C38.9628 13.341 39.0746 13.3872 39.157 13.4695C39.2395 13.5517 39.2858 13.6633 39.2858 13.7797Z" fill="white"/>
<path d="M39.2975 12.6044C39.2975 12.6681 39.2786 12.7305 39.243 12.7835C39.2075 12.8365 39.1571 12.8778 39.098 12.9022C39.039 12.9266 38.974 12.9329 38.9114 12.9204C38.8487 12.9079 38.7912 12.8771 38.7461 12.8319C38.701 12.7868 38.6703 12.7293 38.6579 12.6667C38.6456 12.6041 38.6521 12.5393 38.6767 12.4804C38.7013 12.4215 38.7428 12.3713 38.796 12.336C38.8492 12.3007 38.9117 12.2819 38.9756 12.2821C39.0179 12.2821 39.0599 12.2904 39.099 12.3067C39.1381 12.3229 39.1736 12.3466 39.2035 12.3765C39.2335 12.4065 39.2571 12.442 39.2733 12.4811C39.2894 12.5202 39.2976 12.5621 39.2975 12.6044Z" fill="white"/>
<path d="M38.3191 12.9745C38.32 13.0066 38.3112 13.0382 38.294 13.0652C38.2767 13.0923 38.2518 13.1136 38.2223 13.1264C38.1928 13.1391 38.1602 13.1428 38.1286 13.1369C38.097 13.131 38.0679 13.1158 38.045 13.0932C38.0222 13.0707 38.0066 13.0418 38.0003 13.0104C37.994 12.9789 37.9973 12.9463 38.0098 12.9167C38.0223 12.8871 38.0433 12.8619 38.0702 12.8444C38.0971 12.8269 38.1287 12.8178 38.1608 12.8183C38.2023 12.8188 38.2421 12.8353 38.2716 12.8645C38.3011 12.8936 38.3181 12.9331 38.3191 12.9745Z" fill="white"/>
<path d="M39.4467 14.7302C39.4467 14.762 39.4373 14.7931 39.4196 14.8195C39.4019 14.8459 39.3768 14.8665 39.3474 14.8787C39.3179 14.8908 39.2856 14.894 39.2544 14.8878C39.2231 14.8816 39.1944 14.8663 39.1719 14.8438C39.1494 14.8214 39.1341 14.7927 39.1279 14.7616C39.1217 14.7304 39.1249 14.6981 39.137 14.6687C39.1492 14.6394 39.1699 14.6143 39.1963 14.5966C39.2228 14.579 39.2539 14.5695 39.2858 14.5695C39.3284 14.5695 39.3694 14.5865 39.3996 14.6166C39.4298 14.6467 39.4467 14.6876 39.4467 14.7302Z" fill="white"/>
<path d="M40.776 16.6999C40.776 16.7317 40.7666 16.7628 40.7489 16.7892C40.7312 16.8156 40.7061 16.8362 40.6767 16.8484C40.6472 16.8605 40.6149 16.8637 40.5837 16.8575C40.5524 16.8513 40.5237 16.836 40.5012 16.8135C40.4787 16.7911 40.4634 16.7624 40.4572 16.7313C40.451 16.7001 40.4542 16.6678 40.4663 16.6384C40.4785 16.6091 40.4992 16.584 40.5256 16.5663C40.5521 16.5487 40.5832 16.5392 40.6151 16.5392C40.6577 16.5392 40.6987 16.5562 40.7289 16.5863C40.7591 16.6164 40.776 16.6573 40.776 16.6999Z" fill="white"/>
<path d="M38.102 16.2215C38.102 16.2824 38.084 16.3419 38.0501 16.3925C38.0162 16.4431 37.968 16.4826 37.9117 16.5059C37.8553 16.5292 37.7933 16.5353 37.7335 16.5234C37.6737 16.5115 37.6188 16.4822 37.5756 16.4391C37.5325 16.3961 37.5031 16.3413 37.4912 16.2815C37.4794 16.2218 37.4855 16.1599 37.5088 16.1037C37.5321 16.0474 37.5717 15.9994 37.6224 15.9655C37.6731 15.9317 37.7327 15.9137 37.7937 15.9137C37.8342 15.9135 37.8744 15.9214 37.9118 15.9369C37.9493 15.9523 37.9833 15.975 38.012 16.0036C38.0407 16.0322 38.0634 16.0661 38.0788 16.1035C38.0943 16.141 38.1022 16.181 38.102 16.2215Z" fill="white"/>
<path d="M37.1191 16.7288C37.1191 16.7897 37.101 16.8492 37.0671 16.8998C37.0332 16.9504 36.9851 16.9899 36.9287 17.0132C36.8724 17.0365 36.8104 17.0426 36.7506 17.0307C36.6908 17.0188 36.6358 16.9895 36.5927 16.9465C36.5496 16.9034 36.5202 16.8486 36.5083 16.7889C36.4964 16.7292 36.5025 16.6673 36.5258 16.611C36.5492 16.5548 36.5887 16.5067 36.6394 16.4729C36.6901 16.439 36.7497 16.421 36.8107 16.421C36.8925 16.421 36.9709 16.4534 37.0288 16.5111C37.0866 16.5689 37.1191 16.6472 37.1191 16.7288Z" fill="white"/>
<path d="M38.3417 16.8895C38.3417 16.9181 38.3332 16.946 38.3173 16.9697C38.3014 16.9935 38.2788 17.012 38.2524 17.0229C38.2259 17.0339 38.1968 17.0367 38.1688 17.0311C38.1407 17.0256 38.1149 17.0118 38.0947 16.9916C38.0744 16.9714 38.0607 16.9457 38.0551 16.9177C38.0495 16.8896 38.0524 16.8606 38.0633 16.8342C38.0743 16.8078 38.0928 16.7853 38.1166 16.7694C38.1404 16.7535 38.1684 16.7451 38.197 16.7451C38.2354 16.7451 38.2722 16.7603 38.2993 16.7874C38.3264 16.8144 38.3417 16.8512 38.3417 16.8895Z" fill="white"/>
<path d="M38.4493 17.4952C38.4495 17.524 38.4411 17.5522 38.4251 17.5763C38.4092 17.6003 38.3865 17.6191 38.3598 17.6302C38.3332 17.6413 38.3038 17.6443 38.2755 17.6387C38.2472 17.6331 38.2212 17.6192 38.2008 17.5989C38.1803 17.5785 38.1665 17.5525 38.1609 17.5242C38.1553 17.496 38.1582 17.4667 38.1694 17.4401C38.1805 17.4135 38.1993 17.3908 38.2234 17.3749C38.2475 17.359 38.2757 17.3506 38.3046 17.3508C38.343 17.3508 38.3798 17.366 38.4069 17.3931C38.434 17.4202 38.4493 17.4569 38.4493 17.4952Z" fill="white"/>
<path d="M36.8587 17.6568C36.8587 17.6854 36.8502 17.7133 36.8343 17.737C36.8184 17.7608 36.7958 17.7793 36.7693 17.7902C36.7429 17.8012 36.7138 17.804 36.6857 17.7984C36.6577 17.7929 36.6319 17.7791 36.6117 17.7589C36.5914 17.7387 36.5776 17.713 36.5721 17.685C36.5665 17.657 36.5693 17.6279 36.5803 17.6015C36.5912 17.5751 36.6098 17.5526 36.6336 17.5367C36.6574 17.5208 36.6854 17.5124 36.714 17.5124C36.7523 17.5124 36.7891 17.5276 36.8163 17.5547C36.8434 17.5817 36.8587 17.6185 36.8587 17.6568Z" fill="white"/>
<path d="M36.2926 17.4952C36.2926 17.5547 36.2749 17.6128 36.2418 17.6622C36.2087 17.7116 36.1617 17.7502 36.1067 17.7729C36.0517 17.7957 35.9911 17.8016 35.9327 17.79C35.8743 17.7784 35.8206 17.7498 35.7785 17.7078C35.7364 17.6657 35.7077 17.6122 35.6961 17.5539C35.6845 17.4955 35.6904 17.4351 35.7132 17.3802C35.736 17.3252 35.7746 17.2783 35.8241 17.2453C35.8737 17.2122 35.9319 17.1946 35.9914 17.1946C36.0713 17.1946 36.1479 17.2263 36.2044 17.2827C36.2608 17.339 36.2926 17.4155 36.2926 17.4952Z" fill="white"/>
<path d="M39 17.4221C39 17.4506 38.9915 17.4786 38.9756 17.5023C38.9597 17.5261 38.9371 17.5446 38.9107 17.5555C38.8842 17.5665 38.8552 17.5693 38.8271 17.5637C38.799 17.5582 38.7732 17.5444 38.753 17.5242C38.7328 17.504 38.719 17.4783 38.7134 17.4503C38.7078 17.4222 38.7107 17.3932 38.7216 17.3668C38.7326 17.3404 38.7511 17.3179 38.7749 17.302C38.7987 17.2861 38.8267 17.2776 38.8553 17.2776C38.8937 17.2776 38.9305 17.2929 38.9576 17.32C38.9848 17.347 39 17.3838 39 17.4221Z" fill="white"/>
<path d="M37.98 17.2984C37.98 17.3921 37.9521 17.4838 37.9 17.5617C37.8478 17.6396 37.7736 17.7004 37.6869 17.7363C37.6001 17.7721 37.5047 17.7815 37.4126 17.7632C37.3205 17.7449 37.2359 17.6998 37.1695 17.6335C37.1031 17.5672 37.0579 17.4828 37.0396 17.3909C37.0213 17.2989 37.0307 17.2036 37.0666 17.117C37.1025 17.0305 37.1634 16.9564 37.2415 16.9044C37.3195 16.8523 37.4113 16.8245 37.5052 16.8245C37.6311 16.8245 37.7519 16.8744 37.8409 16.9633C37.9299 17.0522 37.98 17.1727 37.98 17.2984Z" fill="white"/>
<path d="M36.6941 15.6167C36.6941 15.7106 36.6662 15.8025 36.6138 15.8806C36.5615 15.9587 36.4872 16.0195 36.4002 16.0555C36.3133 16.0914 36.2176 16.1007 36.1253 16.0823C36.033 16.0639 35.9482 16.0186 35.8818 15.9521C35.8153 15.8856 35.77 15.8009 35.7518 15.7088C35.7335 15.6166 35.7431 15.5211 35.7792 15.4344C35.8154 15.3476 35.8765 15.2735 35.9548 15.2215C36.0332 15.1694 36.1252 15.1417 36.2193 15.1419C36.2817 15.1419 36.3436 15.1542 36.4012 15.178C36.4589 15.2019 36.5112 15.2369 36.5553 15.281C36.5994 15.3251 36.6344 15.3775 36.6582 15.4351C36.682 15.4927 36.6942 15.5544 36.6941 15.6167Z" fill="white"/>
<path d="M35.4145 15.2087C35.4145 15.267 35.3972 15.3241 35.3647 15.3727C35.3322 15.4212 35.286 15.459 35.232 15.4814C35.1779 15.5037 35.1185 15.5096 35.0611 15.4982C35.0038 15.4868 34.9511 15.4587 34.9097 15.4174C34.8684 15.3761 34.8402 15.3235 34.8288 15.2663C34.8174 15.209 34.8232 15.1496 34.8456 15.0957C34.868 15.0418 34.9059 14.9957 34.9545 14.9632C35.0031 14.9308 35.0603 14.9135 35.1188 14.9135C35.1972 14.9135 35.2724 14.9446 35.3279 14.9999C35.3834 15.0553 35.4145 15.1304 35.4145 15.2087Z" fill="white"/>
<path d="M38.9051 15.1229C38.9052 15.1796 38.8885 15.235 38.8571 15.2822C38.8257 15.3294 38.7809 15.3662 38.7285 15.388C38.6761 15.4098 38.6184 15.4155 38.5627 15.4045C38.507 15.3935 38.4558 15.3662 38.4157 15.3261C38.3756 15.2861 38.3482 15.235 38.3372 15.1794C38.3262 15.1238 38.3319 15.0662 38.3537 15.0139C38.3755 14.9616 38.4124 14.9169 38.4597 14.8855C38.507 14.8541 38.5625 14.8375 38.6193 14.8376C38.6951 14.8376 38.7678 14.8677 38.8214 14.9212C38.8749 14.9747 38.9051 15.0472 38.9051 15.1229Z" fill="white"/>
<path d="M41.0065 14.7342C41.014 14.3588 40.7152 14.0484 40.3392 14.0409C39.9631 14.0334 39.6521 14.3316 39.6446 14.707C39.6371 15.0825 39.9359 15.3929 40.3119 15.4004C40.688 15.4079 40.999 15.1096 41.0065 14.7342Z" fill="white"/>
<path d="M35.2852 14.3204C35.6398 14.3204 35.9272 14.0335 35.9272 13.6795C35.9272 13.3255 35.6398 13.0386 35.2852 13.0386C34.9306 13.0386 34.6432 13.3255 34.6432 13.6795C34.6432 14.0335 34.9306 14.3204 35.2852 14.3204Z" fill="white"/>
<path d="M35.5854 17.2767C35.5854 17.3689 35.558 17.4589 35.5068 17.5355C35.4555 17.6121 35.3826 17.6718 35.2974 17.7071C35.2121 17.7423 35.1183 17.7516 35.0278 17.7336C34.9373 17.7156 34.8541 17.6712 34.7889 17.6061C34.7236 17.541 34.6792 17.458 34.6612 17.3676C34.6432 17.2773 34.6524 17.1836 34.6877 17.0985C34.723 17.0134 34.7828 16.9406 34.8596 16.8894C34.9363 16.8383 35.0265 16.8109 35.1188 16.8109C35.1801 16.8109 35.2408 16.823 35.2974 16.8464C35.354 16.8698 35.4054 16.9041 35.4487 16.9474C35.4921 16.9906 35.5264 17.042 35.5499 17.0985C35.5733 17.155 35.5854 17.2156 35.5854 17.2767Z" fill="white"/>
<path d="M35.2065 16.1971C35.2065 16.2728 35.184 16.3468 35.1419 16.4098C35.0998 16.4727 35.0399 16.5218 34.9698 16.5507C34.8998 16.5797 34.8227 16.5873 34.7483 16.5725C34.6739 16.5578 34.6056 16.5213 34.552 16.4678C34.4984 16.4142 34.4619 16.3461 34.4471 16.2718C34.4323 16.1976 34.4399 16.1206 34.4689 16.0507C34.4979 15.9807 34.547 15.921 34.6101 15.8789C34.6732 15.8368 34.7473 15.8144 34.8231 15.8144C34.9248 15.8144 35.0223 15.8547 35.0942 15.9265C35.1661 15.9983 35.2065 16.0956 35.2065 16.1971Z" fill="white"/>
<path d="M34.5817 16.8895C34.5817 16.9232 34.5716 16.9562 34.5529 16.9843C34.5341 17.0123 34.5074 17.0342 34.4762 17.0471C34.4449 17.06 34.4106 17.0634 34.3774 17.0568C34.3443 17.0502 34.3138 17.034 34.2899 17.0101C34.266 16.9863 34.2497 16.9559 34.2431 16.9228C34.2365 16.8897 34.2399 16.8554 34.2529 16.8242C34.2658 16.793 34.2877 16.7664 34.3158 16.7476C34.3439 16.7289 34.377 16.7189 34.4108 16.7189C34.4561 16.7189 34.4996 16.7368 34.5316 16.7688C34.5637 16.8008 34.5817 16.8442 34.5817 16.8895Z" fill="white"/>
<path d="M34.4876 17.5123C34.4876 17.5461 34.4776 17.5791 34.4588 17.6071C34.44 17.6352 34.4133 17.6571 34.3821 17.67C34.3509 17.6829 34.3165 17.6863 34.2834 17.6797C34.2502 17.6731 34.2198 17.6568 34.1959 17.633C34.172 17.6091 34.1557 17.5787 34.1491 17.5456C34.1425 17.5125 34.1459 17.4782 34.1588 17.4471C34.1717 17.4159 34.1936 17.3892 34.2218 17.3705C34.2499 17.3517 34.2829 17.3417 34.3167 17.3417C34.3392 17.3416 34.3615 17.346 34.3823 17.3545C34.403 17.363 34.4219 17.3756 34.4378 17.3914C34.4537 17.4073 34.4663 17.4262 34.4749 17.4469C34.4834 17.4677 34.4877 17.4899 34.4876 17.5123Z" fill="white"/>
<path d="M33.9378 17.4473C33.9378 17.4811 33.9278 17.5141 33.909 17.5421C33.8902 17.5702 33.8635 17.5921 33.8323 17.605C33.8011 17.6179 33.7667 17.6213 33.7336 17.6147C33.7004 17.6081 33.67 17.5918 33.6461 17.568C33.6222 17.5441 33.6059 17.5137 33.5993 17.4806C33.5927 17.4475 33.5961 17.4132 33.609 17.3821C33.6219 17.3509 33.6438 17.3242 33.672 17.3055C33.7001 17.2867 33.7331 17.2767 33.7669 17.2767C33.8122 17.2767 33.8557 17.2947 33.8878 17.3267C33.9198 17.3587 33.9378 17.4021 33.9378 17.4473Z" fill="white"/>
<path d="M32.1066 16.6999C32.1066 16.7239 32.0995 16.7473 32.0862 16.7671C32.0729 16.787 32.054 16.8025 32.0318 16.8117C32.0097 16.8208 31.9853 16.8232 31.9618 16.8186C31.9383 16.8139 31.9167 16.8024 31.8998 16.7855C31.8828 16.7686 31.8713 16.747 31.8666 16.7235C31.8619 16.7001 31.8643 16.6758 31.8735 16.6537C31.8827 16.6315 31.8982 16.6127 31.9181 16.5994C31.9381 16.5861 31.9615 16.579 31.9855 16.579C32.0176 16.579 32.0484 16.5917 32.0711 16.6144C32.0939 16.6371 32.1066 16.6679 32.1066 16.6999Z" fill="white"/>
<path d="M33.4423 14.7004C33.4424 14.7244 33.4355 14.7479 33.4223 14.7679C33.4091 14.7879 33.3902 14.8035 33.3681 14.8128C33.346 14.8221 33.3216 14.8247 33.298 14.8201C33.2744 14.8155 33.2528 14.8041 33.2357 14.7872C33.2187 14.7703 33.2071 14.7488 33.2023 14.7253C33.1976 14.7018 33.1999 14.6774 33.2091 14.6553C33.2182 14.6331 33.2337 14.6142 33.2537 14.6008C33.2736 14.5875 33.2971 14.5804 33.3211 14.5804C33.3531 14.5804 33.3838 14.593 33.4065 14.6155C33.4292 14.638 33.442 14.6685 33.4423 14.7004Z" fill="white"/>
<path d="M34.6422 12.9348C34.6422 12.9748 34.6304 13.0139 34.6081 13.0471C34.5859 13.0804 34.5542 13.1063 34.5172 13.1216C34.4802 13.1369 34.4395 13.1409 34.4002 13.1331C34.3609 13.1253 34.3248 13.106 34.2965 13.0778C34.2681 13.0495 34.2488 13.0135 34.241 12.9742C34.2332 12.935 34.2372 12.8943 34.2525 12.8574C34.2679 12.8204 34.2938 12.7889 34.3272 12.7667C34.3605 12.7444 34.3996 12.7326 34.4397 12.7326C34.4663 12.7326 34.4926 12.7378 34.5172 12.748C34.5418 12.7581 34.5641 12.773 34.5829 12.7918C34.6017 12.8106 34.6167 12.8329 34.6268 12.8574C34.637 12.8819 34.6422 12.9082 34.6422 12.9348Z" fill="white"/>
<path d="M33.9405 12.6477C33.9405 12.7061 33.9232 12.7632 33.8907 12.8117C33.8582 12.8603 33.812 12.8981 33.758 12.9204C33.7039 12.9428 33.6445 12.9486 33.5871 12.9372C33.5298 12.9258 33.4771 12.8977 33.4357 12.8564C33.3944 12.8152 33.3662 12.7626 33.3548 12.7053C33.3434 12.6481 33.3492 12.5887 33.3716 12.5348C33.394 12.4808 33.4319 12.4347 33.4805 12.4023C33.5292 12.3699 33.5863 12.3525 33.6448 12.3525C33.6837 12.3524 33.7222 12.36 33.7581 12.3748C33.7941 12.3896 33.8267 12.4113 33.8542 12.4387C33.8817 12.4662 33.9034 12.4988 33.9183 12.5346C33.9331 12.5705 33.9406 12.6089 33.9405 12.6477Z" fill="white"/>
<path d="M32.3571 13.8023C32.5619 13.8023 32.7279 13.6366 32.7279 13.4321C32.7279 13.2277 32.5619 13.062 32.3571 13.062C32.1524 13.062 31.9864 13.2277 31.9864 13.4321C31.9864 13.6366 32.1524 13.8023 32.3571 13.8023Z" fill="white"/>
<path d="M31.0197 15.1085C31.1071 15.1085 31.1779 15.0377 31.1779 14.9505C31.1779 14.8632 31.1071 14.7925 31.0197 14.7925C30.9323 14.7925 30.8614 14.8632 30.8614 14.9505C30.8614 15.0377 30.9323 15.1085 31.0197 15.1085Z" fill="white"/>
<path d="M29.5448 15.1644C29.6322 15.1644 29.7031 15.0937 29.7031 15.0065C29.7031 14.9192 29.6322 14.8485 29.5448 14.8485C29.4574 14.8485 29.3866 14.9192 29.3866 15.0065C29.3866 15.0937 29.4574 15.1644 29.5448 15.1644Z" fill="white"/>
<path d="M30.2474 12.0303C30.2474 12.1097 30.2238 12.1874 30.1796 12.2534C30.1354 12.3195 30.0725 12.371 29.999 12.4014C29.9255 12.4318 29.8446 12.4398 29.7665 12.4243C29.6885 12.4088 29.6168 12.3705 29.5605 12.3143C29.5042 12.2581 29.4659 12.1866 29.4503 12.1086C29.4348 12.0307 29.4428 11.9499 29.4732 11.8765C29.5037 11.8031 29.5553 11.7404 29.6215 11.6963C29.6876 11.6521 29.7654 11.6286 29.845 11.6286C29.9517 11.6286 30.0541 11.6709 30.1296 11.7462C30.205 11.8216 30.2474 11.9237 30.2474 12.0303Z" fill="white"/>
<path d="M29.08 10.9154C29.08 11.0113 29.0515 11.105 28.9982 11.1848C28.9448 11.2645 28.869 11.3266 28.7802 11.3633C28.6915 11.4 28.5939 11.4096 28.4997 11.3909C28.4055 11.3722 28.3189 11.326 28.251 11.2582C28.1831 11.1904 28.1369 11.104 28.1181 11.01C28.0994 10.916 28.109 10.8185 28.1458 10.7299C28.1825 10.6414 28.2448 10.5657 28.3246 10.5124C28.4045 10.4591 28.4984 10.4307 28.5944 10.4307C28.6582 10.4306 28.7214 10.443 28.7804 10.4674C28.8393 10.4917 28.8929 10.5274 28.938 10.5724C28.9831 10.6174 29.0189 10.6709 29.0433 10.7298C29.0676 10.7887 29.0801 10.8518 29.08 10.9154Z" fill="white"/>
<path d="M27.7796 10.8983C27.7798 10.9746 27.7573 11.0492 27.7149 11.1128C27.6726 11.1763 27.6123 11.2258 27.5417 11.2551C27.4711 11.2844 27.3934 11.2921 27.3184 11.2773C27.2434 11.2624 27.1745 11.2257 27.1205 11.1717C27.0664 11.1178 27.0296 11.049 27.0147 10.9742C26.9999 10.8993 27.0076 10.8217 27.0369 10.7513C27.0663 10.6808 27.1159 10.6206 27.1795 10.5783C27.2432 10.536 27.318 10.5136 27.3944 10.5137C27.4965 10.514 27.5943 10.5546 27.6665 10.6266C27.7387 10.6987 27.7794 10.7964 27.7796 10.8983Z" fill="white"/>
<path d="M30.7629 10.8324C30.7629 10.9529 30.7271 11.0707 30.66 11.1709C30.5929 11.2711 30.4976 11.3492 30.3861 11.3953C30.2745 11.4414 30.1518 11.4535 30.0334 11.43C29.915 11.4065 29.8062 11.3484 29.7209 11.2632C29.6355 11.178 29.5774 11.0694 29.5538 10.9512C29.5303 10.8331 29.5423 10.7105 29.5885 10.5992C29.6347 10.4879 29.713 10.3927 29.8134 10.3257C29.9137 10.2588 30.0318 10.2231 30.1525 10.2231C30.3144 10.2231 30.4696 10.2872 30.5841 10.4015C30.6986 10.5158 30.7629 10.6708 30.7629 10.8324Z" fill="white"/>
<path d="M29.118 12.395C29.118 12.5419 29.0743 12.6856 28.9925 12.8078C28.9107 12.93 28.7944 13.0252 28.6583 13.0814C28.5223 13.1376 28.3726 13.1523 28.2282 13.1235C28.0838 13.0948 27.9512 13.024 27.8472 12.92C27.7431 12.816 27.6723 12.6835 27.6437 12.5393C27.6151 12.3952 27.63 12.2458 27.6864 12.11C27.7429 11.9743 27.8384 11.8583 27.9609 11.7768C28.0834 11.6953 28.2274 11.6519 28.3747 11.652C28.4723 11.652 28.5691 11.6713 28.6593 11.7086C28.7496 11.746 28.8315 11.8007 28.9006 11.8697C28.9696 11.9387 29.0244 12.0206 29.0617 12.1107C29.099 12.2009 29.1181 12.2974 29.118 12.395Z" fill="white"/>
<path d="M29.4381 14.5334C29.4381 14.587 29.4222 14.6394 29.3924 14.6839C29.3626 14.7284 29.3202 14.7631 29.2706 14.7836C29.2211 14.8041 29.1665 14.8095 29.1139 14.799C29.0613 14.7886 29.0129 14.7628 28.975 14.7249C28.937 14.6871 28.9112 14.6388 28.9007 14.5863C28.8903 14.5337 28.8956 14.4793 28.9162 14.4298C28.9367 14.3803 28.9715 14.338 29.0161 14.3083C29.0607 14.2785 29.1132 14.2626 29.1668 14.2626C29.2388 14.2626 29.3078 14.2912 29.3586 14.342C29.4095 14.3927 29.4381 14.4616 29.4381 14.5334Z" fill="white"/>
<path d="M29.118 13.7273C29.1181 13.8081 29.0943 13.8871 29.0495 13.9544C29.0046 14.0216 28.9408 14.074 28.8661 14.105C28.7913 14.136 28.7091 14.1442 28.6297 14.1285C28.5503 14.1128 28.4774 14.0739 28.4202 14.0168C28.363 13.9596 28.3241 13.8869 28.3083 13.8076C28.2926 13.7284 28.3007 13.6463 28.3318 13.5717C28.3628 13.4971 28.4154 13.4334 28.4827 13.3886C28.5501 13.3438 28.6292 13.32 28.7101 13.3202C28.8183 13.3202 28.922 13.3631 28.9985 13.4395C29.075 13.5158 29.118 13.6194 29.118 13.7273Z" fill="white"/>
<path d="M30.7593 15.2746C30.7594 15.3676 30.732 15.4587 30.6803 15.5361C30.6286 15.6136 30.5551 15.674 30.469 15.7097C30.383 15.7455 30.2882 15.7549 30.1968 15.7369C30.1053 15.7188 30.0213 15.6741 29.9553 15.6084C29.8893 15.5426 29.8444 15.4588 29.8261 15.3676C29.8079 15.2763 29.8171 15.1817 29.8528 15.0957C29.8884 15.0097 29.9488 14.9362 30.0263 14.8845C30.1038 14.8328 30.1949 14.8052 30.2881 14.8052C30.4129 14.8052 30.5326 14.8546 30.6209 14.9426C30.7093 15.0306 30.759 15.15 30.7593 15.2746Z" fill="white"/>
<path d="M31.5311 13.7394C31.6048 13.2186 31.2416 12.7368 30.7199 12.6632C30.1982 12.5896 29.7155 12.9522 29.6418 13.473C29.5681 13.9938 29.9313 14.4756 30.453 14.5492C30.9747 14.6227 31.4574 14.2602 31.5311 13.7394Z" fill="white"/>
<path d="M32.869 14.6905C32.869 14.8155 32.8318 14.9377 32.7623 15.0416C32.6927 15.1455 32.5939 15.2265 32.4782 15.2743C32.3625 15.3221 32.2352 15.3346 32.1125 15.3103C31.9897 15.2859 31.8769 15.2257 31.7884 15.1373C31.6998 15.049 31.6395 14.9364 31.6151 14.8138C31.5907 14.6912 31.6032 14.5642 31.6511 14.4487C31.699 14.3332 31.7802 14.2345 31.8843 14.1651C31.9884 14.0957 32.1108 14.0586 32.236 14.0586C32.4038 14.0586 32.5648 14.1252 32.6835 14.2437C32.8023 14.3622 32.869 14.5229 32.869 14.6905Z" fill="white"/>
<path d="M32.1383 15.9073C32.1383 16.0323 32.1012 16.1545 32.0316 16.2584C31.962 16.3623 31.8632 16.4433 31.7475 16.4911C31.6319 16.539 31.5046 16.5515 31.3818 16.5271C31.259 16.5027 31.1462 16.4425 31.0577 16.3542C30.9692 16.2658 30.9089 16.1532 30.8844 16.0306C30.86 15.908 30.8726 15.781 30.9205 15.6655C30.9684 15.5501 31.0495 15.4514 31.1536 15.3819C31.2577 15.3125 31.3801 15.2755 31.5053 15.2755C31.6732 15.2755 31.8342 15.342 31.9529 15.4605C32.0716 15.579 32.1383 15.7398 32.1383 15.9073Z" fill="white"/>
<path d="M33.2406 12.0303C33.2406 12.0788 33.2262 12.1263 33.1991 12.1667C33.1721 12.2071 33.1337 12.2385 33.0888 12.2571C33.0438 12.2757 32.9944 12.2806 32.9467 12.2711C32.8989 12.2616 32.8551 12.2382 32.8207 12.2039C32.7863 12.1695 32.7629 12.1258 32.7534 12.0782C32.7439 12.0305 32.7488 11.9812 32.7674 11.9363C32.786 11.8914 32.8175 11.8531 32.858 11.8261C32.8984 11.7991 32.946 11.7847 32.9946 11.7847C33.0599 11.7847 33.1224 11.8106 33.1686 11.8566C33.2147 11.9027 33.2406 11.9651 33.2406 12.0303Z" fill="white"/>
<path d="M31.602 12.7118C32.0121 12.7118 32.3445 12.38 32.3445 11.9707C32.3445 11.5614 32.0121 11.2296 31.602 11.2296C31.192 11.2296 30.8596 11.5614 30.8596 11.9707C30.8596 12.38 31.192 12.7118 31.602 12.7118Z" fill="white"/>
<path d="M34.2317 15.1373C34.2317 15.1859 34.2173 15.2334 34.1903 15.2738C34.1632 15.3141 34.1248 15.3456 34.0799 15.3642C34.0349 15.3828 33.9855 15.3876 33.9378 15.3782C33.89 15.3687 33.8462 15.3453 33.8118 15.311C33.7774 15.2766 33.754 15.2329 33.7445 15.1853C33.735 15.1376 33.7399 15.0883 33.7585 15.0434C33.7771 14.9985 33.8086 14.9602 33.8491 14.9332C33.8895 14.9062 33.9371 14.8918 33.9857 14.8918C34.051 14.8918 34.1135 14.9177 34.1597 14.9637C34.2058 15.0098 34.2317 15.0722 34.2317 15.1373Z" fill="white"/>
<path d="M34.1422 13.7273C34.1424 13.8068 34.1189 13.8846 34.0748 13.9508C34.0307 14.0169 33.9679 14.0686 33.8944 14.0991C33.8209 14.1296 33.7399 14.1377 33.6618 14.1223C33.5837 14.1069 33.5119 14.0687 33.4556 14.0126C33.3992 13.9565 33.3608 13.8849 33.3452 13.8069C33.3296 13.729 33.3375 13.6482 33.3679 13.5747C33.3983 13.5013 33.4499 13.4385 33.5161 13.3943C33.5823 13.3501 33.6601 13.3265 33.7398 13.3265C33.8463 13.3265 33.9486 13.3687 34.024 13.4439C34.0994 13.519 34.1419 13.621 34.1422 13.7273Z" fill="white"/>
<path d="M34.1187 16.2838C34.1187 16.4705 34.0632 16.6531 33.9593 16.8084C33.8553 16.9637 33.7076 17.0847 33.5348 17.1561C33.3619 17.2276 33.1717 17.2463 32.9883 17.2099C32.8048 17.1734 32.6362 17.0835 32.5039 16.9515C32.3717 16.8194 32.2816 16.6512 32.2451 16.468C32.2086 16.2848 32.2273 16.095 32.2989 15.9225C32.3705 15.7499 32.4917 15.6025 32.6473 15.4987C32.8028 15.3949 32.9857 15.3396 33.1728 15.3396C33.4237 15.3396 33.6642 15.4391 33.8416 15.6161C34.019 15.7932 34.1187 16.0334 34.1187 16.2838Z" fill="white"/>
<path d="M23.373 29.9407H25.905C26.2579 29.9285 26.6094 29.9916 26.9359 30.1258C27.449 30.3623 27.7055 30.7995 27.7055 31.4374C27.7241 31.7125 27.659 31.9868 27.5185 32.2243C27.3781 32.4618 27.169 32.6513 26.9187 32.7679C27.1104 32.8378 27.2797 32.9579 27.4089 33.1155C27.5192 33.259 27.5807 33.4928 27.5897 33.8151L27.616 34.5607C27.6174 34.7195 27.6353 34.8777 27.6693 35.0328C27.7145 35.2134 27.795 35.3226 27.9117 35.3731V35.4977H26.9911C26.9627 35.4406 26.9423 35.3798 26.9305 35.3172C26.9086 35.1719 26.8959 35.0253 26.8925 34.8785L26.8464 33.9415C26.8301 33.5804 26.6981 33.3348 26.453 33.2112C26.3129 33.1435 26.0913 33.1092 25.7938 33.1092H24.1272V35.4914H23.373V29.9407ZM25.8218 32.4854C26.1655 32.4854 26.4368 32.4147 26.6357 32.2733C26.8346 32.1318 26.9347 31.8773 26.9359 31.5096C26.9359 31.1142 26.7961 30.8434 26.5163 30.6972C26.3275 30.6143 26.1221 30.5757 25.9159 30.5843H24.1254V32.48L25.8218 32.4854Z" fill="white"/>
<path d="M28.7942 29.9407H29.4869V30.7116H28.7942V29.9407ZM28.7942 31.4645H29.4869V35.495H28.7942V31.4645Z" fill="white"/>
<path d="M30.9265 34.2249C30.9335 34.4118 30.9937 34.5928 31.1002 34.7467C31.2756 34.9663 31.5797 35.0759 32.0126 35.0753C32.25 35.0805 32.4847 35.0239 32.6935 34.911C32.7862 34.8634 32.8633 34.7902 32.9154 34.7C32.9675 34.6099 32.9925 34.5067 32.9874 34.4027C32.9897 34.3212 32.9688 34.2406 32.9272 34.1703C32.8856 34.1 32.825 34.0429 32.7523 34.0056C32.5626 33.9196 32.3639 33.8548 32.16 33.8124L31.6093 33.6761C31.3367 33.6211 31.0744 33.5243 30.8316 33.389C30.6946 33.3143 30.5806 33.2037 30.5019 33.0692C30.4232 32.9346 30.3827 32.7811 30.3849 32.6253C30.3793 32.4485 30.4142 32.2727 30.4871 32.1114C30.56 31.9501 30.6689 31.8075 30.8054 31.6946C31.0857 31.4581 31.4625 31.3396 31.9357 31.339C32.5555 31.339 33.0022 31.518 33.2759 31.8761C33.4406 32.0851 33.5286 32.3441 33.5255 32.61H32.8816C32.8684 32.4575 32.8102 32.3124 32.7143 32.1929C32.554 32.0124 32.276 31.9221 31.8806 31.9221C31.6177 31.9221 31.4182 31.9712 31.2819 32.0693C31.2181 32.1118 31.1661 32.1696 31.1305 32.2374C31.095 32.3052 31.0771 32.3809 31.0785 32.4574C31.0799 32.5459 31.1061 32.6323 31.154 32.7068C31.2019 32.7812 31.2697 32.8409 31.3497 32.879C31.4912 32.9568 31.6436 33.0128 31.8019 33.0451L32.2613 33.1543C32.7604 33.2747 33.095 33.3896 33.265 33.4991C33.53 33.6725 33.662 33.9505 33.662 34.3197C33.663 34.4958 33.6264 34.6702 33.5547 34.8311C33.483 34.992 33.3777 35.1359 33.246 35.2531C32.9693 35.5161 32.5473 35.6473 31.98 35.6467C31.3687 35.6467 30.9359 35.5101 30.6815 35.2368C30.4256 34.9595 30.2802 34.5983 30.2727 34.2213L30.9265 34.2249Z" fill="white"/>
<path d="M34.3818 29.9407H35.0374V33.166L36.7854 31.4455H37.6571L36.0972 32.9485L37.744 35.4923H36.8731L35.5972 33.4314L35.0374 33.9731V35.4932H34.3818V29.9407Z" fill="white"/>
<path d="M40.5038 29.9407H41.5835L43.1832 34.6347L44.7721 29.9407H45.8472V35.495H45.1238V32.2164C45.1238 32.1039 45.1265 31.9161 45.132 31.6531C45.132 31.3913 45.1392 31.1115 45.1392 30.81L43.5504 35.495H42.8034L41.2001 30.81V30.9806C41.2001 31.116 41.2037 31.3233 41.211 31.6026C41.2182 31.8818 41.2218 32.0864 41.2218 32.2164V35.495H40.5029L40.5038 29.9407Z" fill="white"/>
<path d="M49.0683 33.0442C49.1333 33.0419 49.1967 33.0226 49.2519 32.9882C49.3071 32.9538 49.3523 32.9056 49.383 32.8483C49.4172 32.7651 49.4326 32.6754 49.4282 32.5856C49.4359 32.4868 49.4169 32.3878 49.3734 32.2987C49.3298 32.2097 49.2632 32.1339 49.1804 32.0792C49.0159 31.9745 48.7798 31.9221 48.4724 31.9221C48.1161 31.9221 47.8647 32.0178 47.7155 32.211C47.6197 32.3518 47.5638 32.5159 47.5536 32.6858H46.9206C46.9333 32.1851 47.0952 31.8367 47.4062 31.6405C47.7322 31.4406 48.1089 31.3387 48.4914 31.3471C48.9676 31.3471 49.355 31.4374 49.6534 31.6179C49.9518 31.7984 50.0992 32.0807 50.0956 32.4646V34.7981C50.0926 34.8578 50.1078 34.9169 50.139 34.9678C50.1619 34.992 50.1902 35.0105 50.2217 35.0216C50.2531 35.0328 50.2868 35.0363 50.3198 35.0319C50.3497 35.0319 50.384 35.0319 50.422 35.0265C50.46 35.0211 50.4998 35.0175 50.5432 35.0093V35.5121C50.4638 35.5366 50.3828 35.5556 50.3008 35.569C50.2252 35.5781 50.1491 35.582 50.073 35.5808C49.9732 35.5885 49.8732 35.5693 49.7833 35.5254C49.6934 35.4814 49.617 35.4142 49.562 35.3307C49.4972 35.2157 49.4572 35.0884 49.4445 34.957C49.2825 35.1567 49.078 35.318 48.8458 35.4291C48.5796 35.5642 48.2845 35.6329 47.9859 35.6295C47.8172 35.6361 47.6489 35.6093 47.4906 35.5508C47.3323 35.4922 47.1872 35.403 47.0635 35.2883C46.9462 35.1791 46.8534 35.0464 46.7911 34.899C46.7287 34.7515 46.6983 34.5925 46.7018 34.4325C46.7018 34.057 46.8193 33.766 47.0545 33.5596C47.3167 33.342 47.639 33.2091 47.9786 33.1787L49.0683 33.0442ZM47.6332 34.883C47.7786 34.997 47.9593 35.057 48.1441 35.0527C48.3863 35.0522 48.625 34.9953 48.8413 34.8866C49.017 34.812 49.1655 34.6855 49.2671 34.5241C49.3686 34.3627 49.4182 34.1742 49.4092 33.9839V33.4359C49.3096 33.4962 49.2013 33.5409 49.0882 33.5686C48.9618 33.6034 48.8331 33.6287 48.703 33.6445L48.2906 33.6977C48.097 33.7145 47.9082 33.7668 47.7336 33.8521C47.6321 33.9063 47.5483 33.9884 47.4922 34.0888C47.4361 34.1891 47.41 34.3034 47.4171 34.4181C47.4133 34.5072 47.4309 34.5959 47.4685 34.6768C47.5061 34.7577 47.5626 34.8284 47.6332 34.883Z" fill="white"/>
<path d="M51.2088 31.4455H51.8562V32.0205C52.0191 31.807 52.2276 31.6325 52.4666 31.5096C52.6903 31.4039 52.9353 31.3507 53.1828 31.3543C53.7579 31.3543 54.1468 31.5547 54.3493 31.9555C54.4609 32.1746 54.5163 32.4884 54.5157 32.897V35.495H53.8221V32.9431C53.8306 32.7382 53.7932 32.5341 53.7127 32.3455C53.5921 32.0933 53.3724 31.9673 53.0535 31.9673C52.9192 31.9637 52.7851 31.9802 52.6556 32.016C52.4623 32.0762 52.2911 32.1921 52.1637 32.3491C52.0577 32.4677 51.9815 32.6097 51.9412 32.7634C51.9023 32.9644 51.8853 33.169 51.8906 33.3737V35.495H51.2088V31.4455Z" fill="white"/>
<path d="M57.6979 33.0442C57.763 33.0419 57.8263 33.0226 57.8815 32.9882C57.9367 32.9539 57.9819 32.9056 58.0126 32.8483C58.0456 32.7655 58.0601 32.6764 58.0551 32.5874C58.0627 32.4886 58.0438 32.3896 58.0002 32.3006C57.9567 32.2115 57.8901 32.1357 57.8073 32.081C57.6421 31.9763 57.4058 31.9239 57.0984 31.9239C56.743 31.9239 56.4907 32.0196 56.3424 32.2128C56.2467 32.3538 56.1905 32.5177 56.1796 32.6876H55.5466C55.5584 32.1866 55.7211 31.8382 56.0322 31.6423C56.3582 31.4424 56.7349 31.3405 57.1174 31.3489C57.5936 31.3489 57.981 31.4392 58.2794 31.6197C58.5778 31.8003 58.7252 32.0825 58.7216 32.4665V34.7999C58.7186 34.8596 58.7337 34.9187 58.765 34.9697C58.7939 35.013 58.8554 35.0337 58.9458 35.0337C58.9766 35.0337 59.01 35.0337 59.0489 35.0283C59.0878 35.0229 59.1267 35.0193 59.1701 35.0112V35.514C59.0907 35.5385 59.0097 35.5575 58.9277 35.5708C58.8521 35.5799 58.776 35.5838 58.6999 35.5826C58.6001 35.5904 58.5 35.5713 58.4101 35.5273C58.3203 35.4833 58.2439 35.4161 58.1889 35.3325C58.1241 35.2175 58.0841 35.0902 58.0714 34.9588C57.9092 35.1584 57.7047 35.3196 57.4727 35.4309C57.2064 35.5659 56.9114 35.6347 56.6128 35.6313C56.4441 35.6379 56.2758 35.6112 56.1175 35.5526C55.9592 35.494 55.814 35.4048 55.6904 35.2901C55.5731 35.1809 55.4803 35.0483 55.418 34.9008C55.3556 34.7533 55.3252 34.5944 55.3287 34.4344C55.3287 34.0588 55.4462 33.7679 55.6814 33.5614C55.9442 33.3432 56.2676 33.2103 56.6082 33.1805L57.6979 33.0442ZM56.2619 34.883C56.4077 34.9969 56.5886 35.0569 56.7737 35.0527C57.0159 35.0522 57.2546 34.9954 57.4709 34.8866C57.6466 34.812 57.7951 34.6855 57.8967 34.5241C57.9982 34.3628 58.0478 34.1742 58.0388 33.9839V33.436C57.9391 33.496 57.8309 33.5408 57.7178 33.5687C57.5911 33.6034 57.4621 33.6287 57.3317 33.6445L56.9202 33.6977C56.7264 33.7147 56.5372 33.767 56.3623 33.8521C56.2609 33.9065 56.1773 33.9887 56.1212 34.089C56.0651 34.1892 56.039 34.3035 56.0458 34.4181C56.042 34.5072 56.0596 34.5959 56.0972 34.6768C56.1348 34.7577 56.1913 34.8284 56.2619 34.883Z" fill="white"/>
<path d="M62.0936 31.608C62.2429 31.7164 62.3751 31.8463 62.4861 31.9934V31.4834H63.1191V35.1664C63.1191 35.681 63.0434 36.0869 62.8921 36.3842C62.61 36.9336 62.0777 37.2083 61.2951 37.2083C60.9078 37.2218 60.5253 37.1196 60.1964 36.915C59.8998 36.72 59.7337 36.4146 59.6982 35.9987H60.3909C60.4122 36.1552 60.4807 36.3016 60.5871 36.4185C60.7396 36.5695 60.9808 36.6451 61.3105 36.6451C61.8308 36.6451 62.1711 36.4609 62.3315 36.0926C62.4273 35.876 62.4713 35.489 62.4635 34.9317C62.3424 35.1252 62.1732 35.2841 61.9725 35.393C61.6586 35.533 61.3105 35.5777 60.9714 35.5217C60.6323 35.4657 60.3172 35.3114 60.0653 35.078C59.7368 34.7662 59.5725 34.2511 59.5725 33.5325C59.5725 32.8543 59.738 32.325 60.0689 31.9447C60.2132 31.7661 60.3957 31.6221 60.603 31.5232C60.8104 31.4243 61.0373 31.3731 61.2671 31.3733C61.5599 31.3676 61.8477 31.4493 62.0936 31.608ZM62.1768 32.3383C62.0819 32.2223 61.9616 32.1295 61.8253 32.0669C61.689 32.0043 61.5401 31.9736 61.3901 31.9772C60.912 31.9772 60.5853 32.2017 60.4099 32.6506C60.3068 32.9535 60.2596 33.2725 60.2706 33.5921C60.2706 34.0489 60.3628 34.3961 60.5473 34.6338C60.6329 34.7496 60.7453 34.8429 60.8749 34.9058C61.0045 34.9687 61.1475 34.9993 61.2915 34.9949C61.7792 34.9949 62.1223 34.7744 62.3206 34.3332C62.4362 34.0567 62.4926 33.759 62.4861 33.4594C62.4861 32.9545 62.383 32.5808 62.1768 32.3383Z" fill="white"/>
<path d="M66.6594 31.5565C66.9069 31.6737 67.1186 31.8548 67.2725 32.081C67.4127 32.2971 67.5052 32.5405 67.5438 32.795C67.5921 33.0901 67.6124 33.389 67.6043 33.6878H64.6564C64.669 34.1 64.7652 34.431 64.9448 34.6808C65.1245 34.9305 65.4039 35.0548 65.7831 35.0536C65.9415 35.0605 66.0995 35.0325 66.2458 34.9715C66.3921 34.9105 66.5231 34.818 66.6295 34.7006C66.7473 34.5629 66.8329 34.4007 66.88 34.2258H67.5501C67.5218 34.4015 67.4605 34.5703 67.3692 34.7232C67.2827 34.8904 67.17 35.0427 67.0355 35.1745C66.8244 35.3793 66.56 35.521 66.2723 35.5835C66.0912 35.6255 65.9057 35.6458 65.7198 35.644C65.4802 35.6475 65.2426 35.6003 65.0226 35.5054C64.8026 35.4105 64.6054 35.27 64.4439 35.0933C64.0948 34.7268 63.9203 34.2132 63.9203 33.5524C63.9203 32.9019 64.096 32.3738 64.4475 31.9682C64.6166 31.7679 64.8291 31.6085 65.0689 31.5022C65.3088 31.3959 65.5697 31.3453 65.8319 31.3543C66.1198 31.356 66.4033 31.4253 66.6594 31.5565ZM66.9035 33.1471C66.8895 32.9007 66.8242 32.66 66.7118 32.4403C66.5261 32.1117 66.2169 31.9477 65.784 31.9483C65.6371 31.9454 65.4912 31.9742 65.3564 32.0326C65.2216 32.091 65.101 32.1777 65.0027 32.2868C64.7883 32.5223 64.6691 32.8289 64.6681 33.1471H66.9035Z" fill="white"/>
<path d="M68.4679 31.4455H69.1416V32.0205C69.2674 31.8561 69.4153 31.7096 69.5811 31.5854C69.8063 31.4311 70.0739 31.3504 70.347 31.3543C70.6268 31.3406 70.9025 31.4249 71.1265 31.5926C71.2537 31.7046 71.357 31.8409 71.4304 31.9934C71.5655 31.7911 71.7488 31.6255 71.9639 31.5114C72.1779 31.4045 72.4146 31.3506 72.6539 31.3543C73.1964 31.3543 73.5675 31.5511 73.767 31.9447C73.885 32.2137 73.9394 32.5062 73.9262 32.7995V35.495H73.2181V32.6822C73.2181 32.412 73.1506 32.2266 73.0156 32.1261C72.872 32.0225 72.6981 31.9692 72.5209 31.9745C72.2638 31.9711 72.0155 32.0683 71.8292 32.2453C71.6362 32.4258 71.5398 32.7246 71.5398 33.1417V35.4968H70.8462V32.8519C70.8462 32.5775 70.8136 32.3771 70.7485 32.2507C70.6442 32.0623 70.4507 31.9679 70.168 31.9673C69.9034 31.9702 69.6508 32.0777 69.4654 32.266C69.255 32.4652 69.1498 32.8263 69.1498 33.3493V35.4968H68.4679V31.4455Z" fill="white"/>
<path d="M77.4366 31.5565C77.6842 31.6737 77.8958 31.8548 78.0497 32.081C78.19 32.2971 78.2824 32.5405 78.321 32.795C78.3694 33.09 78.3897 33.389 78.3816 33.6878H75.43C75.4427 34.1 75.5391 34.431 75.7194 34.6808C75.8996 34.9305 76.1791 35.0548 76.5577 35.0536C76.7166 35.0608 76.8751 35.0328 77.022 34.9716C77.1688 34.9105 77.3002 34.8176 77.4068 34.6997C77.5246 34.562 77.6101 34.3998 77.6573 34.2249H78.3273C78.3001 34.4002 78.2403 34.5689 78.151 34.7223C78.0645 34.8895 77.9518 35.0418 77.8173 35.1736C77.6062 35.3784 77.3418 35.5201 77.0541 35.5826C76.873 35.6246 76.6875 35.6449 76.5016 35.6431C76.2619 35.6465 76.0241 35.5993 75.804 35.5044C75.5839 35.4094 75.3865 35.269 75.2247 35.0924C74.8769 34.7259 74.7027 34.2123 74.7021 33.5515C74.7021 32.901 74.8778 32.3729 75.2293 31.9673C75.3982 31.7686 75.6098 31.6107 75.8485 31.5052C76.0871 31.3997 76.3465 31.3493 76.6074 31.3579C76.8956 31.3582 77.1797 31.4263 77.4366 31.5565ZM77.6781 33.1471C77.6641 32.9007 77.5988 32.66 77.4864 32.4403C77.3013 32.1117 76.992 31.9477 76.5586 31.9483C76.4116 31.9454 76.2658 31.9742 76.131 32.0326C75.9962 32.091 75.8755 32.1777 75.7773 32.2868C75.5628 32.5223 75.4436 32.8289 75.4427 33.1471H77.6781Z" fill="white"/>
<path d="M79.2452 31.4455H79.8927V32.0205C80.0561 31.8075 80.2645 31.6331 80.5031 31.5096C80.7268 31.4039 80.9718 31.3507 81.2193 31.3543C81.7944 31.3543 82.1832 31.5547 82.3858 31.9555C82.4973 32.1746 82.5528 32.4884 82.5522 32.897V35.495H81.8586V32.9431C81.867 32.7382 81.8296 32.5341 81.7492 32.3455C81.6286 32.0933 81.4089 31.9673 81.0899 31.9673C80.9556 31.9637 80.8215 31.9802 80.6921 32.016C80.4988 32.0762 80.3276 32.1921 80.2001 32.3491C80.0941 32.4675 80.0182 32.6096 79.9786 32.7634C79.9388 32.9643 79.9215 33.169 79.927 33.3737V35.495H79.2452V31.4455Z" fill="white"/>
<path d="M83.6961 30.3144H84.3861V31.4455H85.0335V32.0016H84.3861V34.6447C84.3793 34.7008 84.3893 34.7577 84.4149 34.8081C84.4405 34.8586 84.4805 34.9003 84.5299 34.9281C84.614 34.9615 84.7045 34.9757 84.7948 34.9696H84.9006C84.9386 34.9696 84.9829 34.9642 85.0335 34.957V35.4986C84.9538 35.5223 84.8721 35.5389 84.7894 35.5483C84.6993 35.5586 84.6087 35.5637 84.5181 35.5636C84.1998 35.5636 83.9846 35.4824 83.8706 35.319C83.7497 35.131 83.6901 34.9103 83.6997 34.6871V32.0061H83.1508V31.45H83.6997L83.6961 30.3144Z" fill="white"/>
<path d="M99.2254 31.6676C99.0785 31.6646 98.9327 31.6933 98.7979 31.7515C98.6631 31.8098 98.5425 31.8963 98.4441 32.0052C98.2296 32.241 98.1104 32.5478 98.1095 32.8663H100.345C100.331 32.62 100.265 32.3793 100.153 32.1595C99.9681 31.831 99.6588 31.667 99.2254 31.6676Z" fill="white"/>
<path d="M107.85 31.6676C107.704 31.6648 107.558 31.6935 107.423 31.7518C107.288 31.81 107.168 31.8964 107.069 32.0052C106.855 32.241 106.735 32.5478 106.735 32.8664H108.966C108.952 32.62 108.887 32.3793 108.775 32.1595C108.591 31.831 108.283 31.667 107.85 31.6676Z" fill="white"/>
<path d="M95.3659 31.8761C95.6462 31.7371 95.7867 31.4873 95.7873 31.1269C95.7879 30.7664 95.6372 30.5218 95.3351 30.393C95.0938 30.3113 94.8392 30.2755 94.5846 30.2874H93.2282V32.0079H94.6135C94.871 32.0204 95.128 31.9753 95.3659 31.8761Z" fill="white"/>
<path d="M95.5088 32.7337C95.2621 32.6474 95.0014 32.6079 94.7401 32.6172H93.2318V34.5734H94.8722C95.3397 34.5734 95.6716 34.4398 95.8669 34.1726C95.9946 33.9945 96.0604 33.7795 96.0541 33.5605C96.0553 33.1525 95.8735 32.8769 95.5088 32.7337Z" fill="white"/>
<path d="M88.0177 27.0178V38.0036H117V27.0178H88.0177ZM96.4709 34.5643C96.1327 34.9976 95.5953 35.2143 94.8586 35.2143H92.4912V29.6591H94.8975C95.5534 29.6591 96.0197 29.8534 96.2964 30.2422C96.4607 30.4742 96.5462 30.7526 96.5406 31.0366C96.5534 31.3511 96.4464 31.6587 96.2412 31.8977C96.1147 32.034 95.963 32.1447 95.7945 32.2236C96.0301 32.3024 96.2477 32.4269 96.4348 32.5901C96.6853 32.832 96.81 33.1669 96.81 33.5921C96.8117 33.9454 96.692 34.2885 96.4709 34.5643ZM98.3835 34.3991C98.5643 34.6474 98.8438 34.7728 99.2218 34.7728C99.3801 34.7795 99.5379 34.7512 99.6841 34.69C99.8302 34.6289 99.961 34.5363 100.067 34.419C100.186 34.2818 100.272 34.1194 100.318 33.9442H100.989C100.96 34.1195 100.899 34.2879 100.808 34.4407C100.721 34.6079 100.609 34.7603 100.474 34.892C100.263 35.0969 99.9987 35.2386 99.711 35.3009C99.5295 35.3427 99.3438 35.3627 99.1576 35.3605C98.918 35.3641 98.6805 35.317 98.4605 35.2222C98.2406 35.1274 98.0433 34.9872 97.8816 34.8108C97.5326 34.4431 97.358 33.9294 97.358 33.2699C97.358 32.6199 97.5341 32.0918 97.8861 31.6856C98.0551 31.4873 98.2667 31.3296 98.5051 31.2243C98.7436 31.119 99.0027 31.0687 99.2634 31.0772C99.5527 31.0776 99.8379 31.1466 100.095 31.2785C100.343 31.3952 100.555 31.5763 100.709 31.803C100.85 32.0189 100.942 32.2624 100.981 32.517C101.029 32.8121 101.049 33.111 101.04 33.4098H98.0896C98.1065 33.8196 98.2053 34.1494 98.3862 34.3991H98.3835ZM103.382 31.7199H102.735V34.3639C102.728 34.4201 102.738 34.4769 102.764 34.5274C102.789 34.5778 102.829 34.6196 102.879 34.6474C102.963 34.6807 103.053 34.6949 103.144 34.6889H103.25C103.287 34.6889 103.332 34.6835 103.382 34.6763V35.2179C103.302 35.2407 103.221 35.2573 103.138 35.2675C103.048 35.2775 102.958 35.2823 102.867 35.282C102.549 35.282 102.333 35.2016 102.219 35.0382C102.099 34.8502 102.039 34.6295 102.049 34.4064V31.7199H101.5V31.1639H102.049V30.0337H102.739V31.1639H103.386L103.382 31.7199ZM105.538 31.7199H104.891V34.3639C104.884 34.4201 104.894 34.4769 104.92 34.5274C104.945 34.5778 104.985 34.6196 105.035 34.6474C105.119 34.6808 105.209 34.695 105.299 34.6889H105.406C105.443 34.6889 105.488 34.6835 105.538 34.6763V35.2179C105.458 35.2406 105.377 35.2572 105.294 35.2675C105.204 35.2775 105.113 35.2823 105.023 35.282C104.704 35.282 104.488 35.2016 104.374 35.0382C104.254 34.8501 104.194 34.6294 104.204 34.4064V31.7199H103.655V31.1639H104.204V30.0337H104.894V31.1639H105.542L105.538 31.7199ZM107.009 34.3991C107.189 34.6474 107.469 34.7728 107.847 34.7728C108.005 34.7792 108.163 34.7508 108.309 34.6896C108.456 34.6285 108.587 34.5361 108.693 34.419C108.811 34.2815 108.897 34.1192 108.943 33.9442H109.614C109.585 34.1195 109.524 34.2879 109.433 34.4407C109.347 34.6079 109.234 34.7603 109.099 34.892C108.888 35.0971 108.624 35.2388 108.336 35.3009C108.155 35.3427 107.969 35.3627 107.784 35.3605C107.544 35.3643 107.306 35.3172 107.086 35.2224C106.866 35.1277 106.669 34.9873 106.508 34.8108C106.159 34.4431 105.984 33.9294 105.984 33.2699C105.984 32.6199 106.16 32.0918 106.511 31.6856C106.68 31.4873 106.892 31.3296 107.131 31.2243C107.369 31.119 107.629 31.0687 107.889 31.0772C108.179 31.0779 108.464 31.1469 108.721 31.2785C108.969 31.3955 109.181 31.5766 109.335 31.803C109.476 32.0189 109.568 32.2624 109.607 32.517C109.655 32.812 109.676 33.1109 109.667 33.4098H106.716C106.732 33.8196 106.829 34.1494 107.009 34.3991ZM112.525 31.8111C112.485 31.8039 112.448 31.7985 112.413 31.7957C112.379 31.793 112.342 31.7957 112.301 31.7957C111.958 31.7957 111.695 31.9062 111.51 32.127C111.329 32.3392 111.23 32.6099 111.233 32.8889V35.2179H110.552V31.1639H111.199V31.8653C111.294 31.675 111.427 31.5061 111.59 31.3688C111.78 31.1804 112.038 31.0752 112.306 31.0763C112.318 31.0763 112.339 31.0763 112.37 31.0763C112.401 31.0763 112.451 31.0835 112.525 31.0907V31.8111Z" fill="white"/>
</g>
<defs>
<clipPath id="clip0_8_10">
<rect width="117" height="38" fill="white"/>
</clipPath>
</defs>
</svg>
