<svg width="542" height="64" viewBox="0 0 542 64" fill="none" xmlns="http://www.w3.org/2000/svg">
<path d="M0 16.916H14.6352C16.6751 16.8453 18.7065 17.2104 20.5939 17.9869C23.5593 19.3557 25.0419 21.8859 25.0419 25.5777C25.1497 27.1699 24.773 28.7575 23.9614 30.1318C23.1499 31.5062 21.9413 32.603 20.4946 33.2782C21.6023 33.6826 22.5808 34.3773 23.3275 35.2895C23.9652 36.1201 24.3206 37.4732 24.3729 39.3382L24.5245 43.6534C24.5327 44.5724 24.636 45.488 24.8329 46.3857C25.0942 47.4305 25.5594 48.0626 26.2337 48.3552V49.0761H20.9127C20.7485 48.7456 20.6307 48.394 20.5625 48.0313C20.4358 47.1905 20.3625 46.3425 20.343 45.4923L20.0764 40.0696C19.9823 37.9799 19.2192 36.559 17.8027 35.8432C16.9926 35.4514 15.712 35.2529 13.9923 35.2529H4.35921V49.0396H0V16.916ZM14.1544 31.643C16.1406 31.643 17.7086 31.2338 18.8585 30.4153C20.0085 29.5968 20.5869 28.1236 20.5939 25.9956C20.5939 23.7074 19.7855 22.1402 18.1686 21.2938C17.0768 20.8141 15.8896 20.5907 14.698 20.6408H4.34876V31.6116L14.1544 31.643Z" fill="url(#paint0_linear_101_2972)"/>
<path d="M31.3351 16.916H35.3388V21.3775H31.3351V16.916ZM31.3351 25.7344H35.3388V49.0605H31.3351V25.7344Z" fill="url(#paint1_linear_101_2972)"/>
<path d="M43.66 41.71C43.7001 42.7915 44.0483 43.8391 44.6636 44.7296C45.6776 46.0008 47.4356 46.6347 49.9375 46.6312C51.3099 46.6617 52.6665 46.334 53.8734 45.6804C54.4093 45.4051 54.8545 44.9813 55.1558 44.4597C55.457 43.938 55.6016 43.3407 55.5721 42.7392C55.5852 42.267 55.4646 41.8007 55.2241 41.394C54.9837 40.9874 54.6332 40.6568 54.2131 40.4405C53.1166 39.943 51.9684 39.5681 50.7895 39.3225L47.6063 38.5337C46.031 38.2155 44.5147 37.6551 43.1112 36.8724C42.3194 36.4401 41.6604 35.8001 41.2055 35.0213C40.7505 34.2425 40.5167 33.3545 40.5292 32.4527C40.4968 31.4292 40.6989 30.4118 41.1202 29.4783C41.5414 28.5447 42.1706 27.7198 42.9596 27.0666C44.58 25.6978 46.7578 25.0117 49.4932 25.0082C53.0754 25.0082 55.6575 26.0444 57.2395 28.1166C58.1914 29.3262 58.7005 30.825 58.6821 32.3639H54.9605C54.8842 31.4815 54.5477 30.6415 53.9936 29.9503C53.0667 28.9055 51.4603 28.3831 49.1744 28.3831C47.6551 28.3831 46.5017 28.6669 45.7142 29.2346C45.3455 29.4806 45.0446 29.8152 44.8392 30.2077C44.6337 30.6002 44.5301 31.0381 44.5382 31.481C44.5466 31.9932 44.6978 32.4929 44.9748 32.9239C45.2518 33.3549 45.6436 33.7001 46.1062 33.9207C46.9238 34.3712 47.8049 34.6953 48.7197 34.882L51.3749 35.5141C54.2601 36.2107 56.1941 36.8759 57.1767 37.5098C58.7082 38.5128 59.4713 40.1218 59.4713 42.2585C59.477 43.2779 59.2655 44.2868 58.851 45.2182C58.4364 46.1495 57.8283 46.982 57.067 47.6604C55.4675 49.1824 53.0283 49.9416 49.7493 49.9381C46.216 49.9381 43.7141 49.1475 42.2436 47.5663C40.7647 45.9612 39.9244 43.8707 39.881 41.6891L43.66 41.71Z" fill="url(#paint2_linear_101_2972)"/>
<path d="M63.6319 16.916H67.4214V35.5821L77.525 25.6247H82.5637L73.5473 34.323L83.0654 49.0448H78.032L70.6568 37.118L67.4214 40.2525V49.0501H63.6319V16.916Z" fill="url(#paint3_linear_101_2972)"/>
<path d="M99.0178 16.916H105.259L114.505 44.0818L123.689 16.916H129.903V49.0605H125.722V30.0862C125.722 29.4349 125.738 28.3483 125.769 26.8263C125.769 25.3113 125.811 23.6918 125.811 21.9469L116.627 49.0605H112.31L103.043 21.9469V22.9343C103.043 23.7179 103.063 24.9177 103.105 26.5337C103.147 28.1498 103.168 29.3339 103.168 30.0862V49.0605H99.0126L99.0178 16.916Z" fill="url(#paint4_linear_101_2972)"/>
<path d="M148.522 34.8768C148.898 34.8635 149.263 34.7518 149.583 34.5529C149.902 34.3539 150.163 34.0747 150.341 33.7431C150.538 33.2616 150.627 32.7426 150.602 32.2229C150.646 31.6511 150.537 31.078 150.285 30.5627C150.033 30.0474 149.648 29.6088 149.17 29.2921C148.218 28.6861 146.854 28.3831 145.077 28.3831C143.018 28.3831 141.565 28.9368 140.702 30.0548C140.149 30.87 139.825 31.8193 139.767 32.8027H136.108C136.181 29.9051 137.117 27.8885 138.915 26.7531C140.799 25.5962 142.976 25.0067 145.187 25.0553C147.94 25.0553 150.179 25.5777 151.903 26.6225C153.628 27.6674 154.48 29.3008 154.459 31.5228V45.0274C154.442 45.3725 154.53 45.7148 154.71 46.0095C154.843 46.1497 155.006 46.2564 155.188 46.3209C155.37 46.3853 155.564 46.4058 155.756 46.3804C155.928 46.3804 156.127 46.3804 156.346 46.3491C156.566 46.3178 156.796 46.2969 157.047 46.2498V49.1597C156.588 49.3015 156.12 49.4114 155.646 49.4888C155.209 49.5413 154.769 49.564 154.329 49.5568C153.752 49.6014 153.174 49.4908 152.654 49.2362C152.135 48.9817 151.693 48.5927 151.375 48.1097C151.001 47.4438 150.77 46.7072 150.696 45.9468C149.76 47.1029 148.578 48.0362 147.236 48.6791C145.697 49.4609 143.991 49.8588 142.265 49.8389C141.29 49.877 140.317 49.7221 139.402 49.3832C138.487 49.0443 137.648 48.5281 136.934 47.8641C136.256 47.2323 135.719 46.4645 135.359 45.6111C134.999 44.7576 134.823 43.8377 134.843 42.9116C134.843 40.7383 135.522 39.0544 136.881 37.8598C138.397 36.6004 140.26 35.8315 142.223 35.6552L148.522 34.8768ZM140.227 45.5185C141.067 46.1785 142.111 46.5257 143.18 46.5006C144.58 46.498 145.959 46.1688 147.21 45.5394C148.225 45.1076 149.084 44.3755 149.67 43.4416C150.257 42.5077 150.544 41.4167 150.492 40.3152V37.1441C149.916 37.4927 149.291 37.7516 148.637 37.912C147.906 38.113 147.162 38.2596 146.41 38.3508L144.027 38.6591C142.907 38.7563 141.816 39.0591 140.807 39.5524C140.22 39.8662 139.736 40.3416 139.412 40.9222C139.087 41.5028 138.937 42.1643 138.977 42.828C138.955 43.3436 139.057 43.857 139.275 44.3251C139.492 44.7932 139.818 45.2024 140.227 45.5185Z" fill="url(#paint5_linear_101_2972)"/>
<path d="M160.894 25.6247H164.636V28.9525C165.578 27.7171 166.783 26.707 168.164 25.9956C169.457 25.3837 170.873 25.0763 172.304 25.0971C175.628 25.0971 177.876 26.2569 179.047 28.5764C179.691 29.8441 180.012 31.6604 180.008 34.0252V49.0605H175.999V34.2917C176.048 33.1062 175.832 31.9248 175.367 30.8333C174.67 29.374 173.4 28.6443 171.556 28.6443C170.78 28.624 170.005 28.7191 169.257 28.9264C168.139 29.2746 167.15 29.9453 166.413 30.8541C165.801 31.5405 165.36 32.3623 165.127 33.2521C164.902 34.4152 164.804 35.5993 164.835 36.7836V49.0605H160.894V25.6247Z" fill="url(#paint6_linear_101_2972)"/>
<path d="M198.402 34.8768C198.778 34.8635 199.144 34.7518 199.463 34.5529C199.782 34.354 200.043 34.0747 200.221 33.7431C200.411 33.2637 200.495 32.7484 200.466 32.2333C200.51 31.6616 200.401 31.0884 200.149 30.5731C199.897 30.0579 199.512 29.6192 199.034 29.3026C198.079 28.6965 196.713 28.3935 194.936 28.3935C192.882 28.3935 191.424 28.9473 190.567 30.0653C190.013 30.8811 189.689 31.8298 189.626 32.8132H185.967C186.035 29.9138 186.976 27.8972 188.774 26.7636C190.658 25.6067 192.835 25.0172 195.046 25.0657C197.799 25.0657 200.038 25.5881 201.763 26.633C203.487 27.6778 204.339 29.3113 204.318 31.5333V45.0378C204.301 45.383 204.389 45.7253 204.569 46.02C204.737 46.2708 205.092 46.3909 205.615 46.3909C205.792 46.3909 205.986 46.3909 206.211 46.3596C206.435 46.3282 206.66 46.3073 206.911 46.2603V49.1702C206.452 49.3119 205.984 49.4219 205.51 49.4993C205.073 49.5518 204.633 49.5745 204.193 49.5672C203.616 49.6125 203.038 49.502 202.518 49.2475C201.999 48.9929 201.557 48.6036 201.24 48.1201C200.865 47.4543 200.634 46.7176 200.56 45.9573C199.623 47.1121 198.441 48.0451 197.1 48.6896C195.561 49.4707 193.856 49.8686 192.129 49.8493C191.154 49.8874 190.182 49.7325 189.267 49.3936C188.352 49.0548 187.513 48.5385 186.798 47.8746C186.12 47.2428 185.584 46.475 185.223 45.6215C184.863 44.7681 184.687 43.8481 184.707 42.922C184.707 40.7488 185.387 39.0648 186.746 37.8702C188.265 36.6071 190.134 35.8379 192.103 35.6656L198.402 34.8768ZM190.101 45.5185C190.944 46.1777 191.99 46.5248 193.06 46.5006C194.46 46.498 195.84 46.1688 197.09 45.5394C198.105 45.1076 198.964 44.3755 199.55 43.4416C200.137 42.5078 200.424 41.4167 200.372 40.3152V37.1441C199.796 37.4918 199.17 37.7507 198.517 37.912C197.785 38.113 197.039 38.2597 196.285 38.3509L193.907 38.6591C192.786 38.7572 191.693 39.06 190.682 39.5524C190.096 39.8672 189.612 40.3428 189.288 40.9232C188.964 41.5035 188.813 42.1645 188.852 42.828C188.83 43.3436 188.932 43.857 189.149 44.3251C189.367 44.7932 189.693 45.2024 190.101 45.5185Z" fill="url(#paint7_linear_101_2972)"/>
<path d="M223.809 26.5651C224.672 27.1922 225.437 27.944 226.078 28.7958V25.8441H229.737V47.1589C229.737 50.1367 229.299 52.4858 228.425 54.2063C226.794 57.3861 223.717 58.976 219.194 58.976C216.955 59.0538 214.744 58.4627 212.843 57.2781C211.129 56.1497 210.169 54.3822 209.963 51.9756H213.967C214.091 52.8814 214.486 53.7284 215.102 54.4048C215.983 55.279 217.377 55.7161 219.283 55.7161C222.29 55.7161 224.257 54.6504 225.184 52.5189C225.738 51.2651 225.993 49.0257 225.947 45.8006C225.247 46.9202 224.27 47.8398 223.109 48.4701C221.295 49.2801 219.283 49.5392 217.323 49.215C215.363 48.8908 213.542 47.9977 212.086 46.6469C210.186 44.8428 209.237 41.8615 209.237 37.7031C209.237 33.7779 210.193 30.7148 212.107 28.5137C212.94 27.4802 213.995 26.6466 215.194 26.0743C216.392 25.502 217.704 25.2056 219.032 25.2068C220.724 25.174 222.388 25.6469 223.809 26.5651ZM224.29 30.7914C223.742 30.1201 223.047 29.5829 222.259 29.2208C221.47 28.8586 220.61 28.6811 219.743 28.7018C216.98 28.7018 215.091 30.0009 214.077 32.599C213.482 34.3518 213.209 36.1979 213.272 38.0479C213.272 40.6913 213.805 42.7009 214.872 44.0766C215.366 44.7464 216.016 45.2865 216.765 45.6504C217.514 46.0143 218.341 46.1914 219.173 46.1663C221.992 46.1663 223.975 44.8898 225.121 42.3369C225.789 40.7363 226.115 39.0138 226.078 37.2799C226.078 34.3578 225.482 32.195 224.29 30.7914Z" fill="url(#paint8_linear_101_2972)"/>
<path d="M250.2 26.2673C251.631 26.9454 252.854 27.9933 253.744 29.3025C254.554 30.553 255.089 31.9617 255.312 33.4349C255.591 35.1422 255.709 36.8722 255.662 38.6016H238.622C238.696 40.9873 239.251 42.9029 240.29 44.3482C241.328 45.7936 242.943 46.5128 245.135 46.5058C246.051 46.546 246.964 46.3837 247.81 46.0306C248.655 45.6775 249.413 45.1423 250.028 44.4632C250.708 43.666 251.203 42.7273 251.475 41.7152H255.348C255.185 42.7322 254.83 43.7089 254.303 44.5938C253.803 45.5612 253.152 46.4429 252.374 47.2059C251.154 48.391 249.626 49.2109 247.963 49.5724C246.916 49.8159 245.844 49.9334 244.769 49.9225C243.384 49.9433 242.011 49.67 240.739 49.1206C239.468 48.5713 238.328 47.7584 237.394 46.7357C235.377 44.6147 234.368 41.6421 234.368 37.818C234.368 34.0531 235.384 30.9969 237.415 28.6495C238.393 27.4903 239.621 26.5682 241.007 25.9528C242.393 25.3374 243.901 25.0448 245.417 25.0971C247.081 25.1069 248.72 25.5078 250.2 26.2673ZM251.611 35.4723C251.53 34.0466 251.153 32.6535 250.503 31.3818C249.43 29.4802 247.642 28.5311 245.14 28.5346C244.291 28.518 243.448 28.6843 242.669 29.0224C241.89 29.3604 241.192 29.8622 240.624 30.4937C239.385 31.8565 238.696 33.6306 238.69 35.4723H251.611Z" fill="url(#paint9_linear_101_2972)"/>
<path d="M260.654 25.6247H264.548V28.9525C265.275 28.0007 266.13 27.1534 267.088 26.4344C268.39 25.5417 269.937 25.0744 271.515 25.0971C273.132 25.0176 274.726 25.5055 276.021 26.4763C276.756 27.1241 277.353 27.9129 277.777 28.7958C278.558 27.6251 279.618 26.6665 280.861 26.0061C282.098 25.3874 283.466 25.0756 284.849 25.0971C287.985 25.0971 290.13 26.2359 291.283 28.5137C291.965 30.0706 292.28 31.7632 292.203 33.461V49.0605H288.11V32.7819C288.11 31.2181 287.72 30.1454 286.94 29.5638C286.11 28.9639 285.104 28.6553 284.081 28.6861C282.594 28.6666 281.159 29.2291 280.082 30.2533C278.967 31.2982 278.409 33.0274 278.409 35.441V49.0709H274.4V33.764C274.4 32.1758 274.212 31.0161 273.836 30.2847C273.233 29.1946 272.115 28.6478 270.48 28.6443C268.951 28.6616 267.491 29.2833 266.419 30.3735C265.203 31.5263 264.595 33.616 264.595 36.6425V49.0709H260.654V25.6247Z" fill="url(#paint10_linear_101_2972)"/>
<path d="M312.494 26.2673C313.925 26.9454 315.148 27.9933 316.038 29.3026C316.848 30.553 317.383 31.9617 317.606 33.4349C317.885 35.1422 318.003 36.8722 317.956 38.6016H300.895C300.969 40.9874 301.526 42.9029 302.568 44.3483C303.61 45.7936 305.225 46.5128 307.413 46.5059C308.332 46.5477 309.248 46.3857 310.097 46.0316C310.946 45.6776 311.705 45.1402 312.321 44.458C313.002 43.6608 313.497 42.7221 313.769 41.71H317.642C317.485 42.7246 317.139 43.7008 316.623 44.5886C316.123 45.556 315.472 46.4377 314.694 47.2007C313.474 48.3858 311.946 49.2056 310.283 49.5672C309.236 49.8107 308.164 49.9282 307.089 49.9173C305.704 49.9375 304.329 49.6639 303.057 49.1146C301.785 48.5653 300.644 47.7528 299.709 46.7305C297.698 44.6095 296.691 41.6369 296.688 37.8128C296.688 34.0479 297.704 30.9917 299.735 28.6443C300.711 27.4948 301.935 26.5806 303.314 25.97C304.694 25.3594 306.193 25.0681 307.701 25.118C309.367 25.1197 311.009 25.5134 312.494 26.2673ZM313.889 35.4723C313.809 34.0467 313.431 32.6535 312.781 31.3818C311.712 29.4802 309.924 28.5311 307.419 28.5346C306.569 28.518 305.726 28.6843 304.947 29.0224C304.168 29.3604 303.47 29.8623 302.903 30.4937C301.663 31.8565 300.974 33.6306 300.969 35.4723H313.889Z" fill="url(#paint11_linear_101_2972)"/>
<path d="M322.948 25.6247H326.69V28.9525C327.635 27.72 328.839 26.7104 330.218 25.9956C331.511 25.3837 332.927 25.0763 334.358 25.0971C337.682 25.0971 339.93 26.2569 341.1 28.5764C341.745 29.8441 342.066 31.6604 342.062 34.0252V49.0605H338.053V34.2917C338.102 33.1062 337.886 31.9248 337.421 30.8333C336.724 29.374 335.454 28.6443 333.61 28.6443C332.834 28.624 332.059 28.7191 331.311 28.9264C330.193 29.2746 329.204 29.9453 328.467 30.8541C327.855 31.5396 327.415 32.3619 327.187 33.2521C326.957 34.4146 326.857 35.599 326.889 36.7836V49.0605H322.948V25.6247Z" fill="url(#paint12_linear_101_2972)"/>
<path d="M348.674 19.0788H352.662V25.6247H356.405V28.8428H352.662V44.1393C352.623 44.4642 352.681 44.7934 352.829 45.0854C352.977 45.3773 353.208 45.6189 353.493 45.7797C353.98 45.9728 354.503 46.0549 355.025 46.02H355.636C355.856 46.02 356.112 45.9887 356.405 45.9469V49.0814C355.944 49.2182 355.471 49.3143 354.994 49.3687C354.473 49.4284 353.949 49.458 353.425 49.4575C351.586 49.4575 350.342 48.9874 349.683 48.0418C348.984 46.9538 348.639 45.6765 348.695 44.3848V28.8689H345.522V25.6508H348.695L348.674 19.0788Z" fill="url(#paint13_linear_101_2972)"/>
<path d="M438.435 26.9099C437.586 26.8929 436.744 27.0587 435.965 27.3958C435.185 27.7329 434.488 28.2335 433.919 28.8637C432.679 30.2284 431.99 32.0043 431.985 33.8476H444.906C444.825 32.422 444.447 31.029 443.798 29.7571C442.728 27.8555 440.941 26.9064 438.435 26.9099Z" fill="url(#paint14_linear_101_2972)"/>
<path d="M488.289 26.9099C487.44 26.894 486.598 27.0601 485.819 27.3972C485.04 27.7342 484.342 28.2343 483.773 28.8637C482.533 30.2284 481.844 32.0043 481.839 33.8476H494.739C494.658 32.4221 494.28 31.029 493.631 29.7571C492.572 27.8555 490.791 26.9064 488.289 26.9099Z" fill="url(#paint15_linear_101_2972)"/>
<path d="M416.127 28.1166C417.747 27.3121 418.559 25.8668 418.563 23.7806C418.566 21.6944 417.695 20.2786 415.949 19.5333C414.554 19.0606 413.083 18.8533 411.611 18.922H403.771V28.8794H411.778C413.267 28.9515 414.752 28.6909 416.127 28.1166Z" fill="url(#paint16_linear_101_2972)"/>
<path d="M416.953 33.0796C415.527 32.5803 414.02 32.3517 412.51 32.4057H403.792V43.7266H413.273C415.975 43.7266 417.894 42.9534 419.023 41.407C419.761 40.3763 420.141 39.1321 420.105 37.865C420.112 35.5037 419.061 33.9085 416.953 33.0796Z" fill="url(#paint17_linear_101_2972)"/>
<path d="M373.654 0V63.5785H541.175V0H373.654ZM422.514 43.6743C420.559 46.1819 417.453 47.4358 413.195 47.4358H399.511V15.286H413.42C417.211 15.286 419.906 16.411 421.506 18.6609C422.455 20.0034 422.949 21.6144 422.917 23.2582C422.991 25.0783 422.373 26.8589 421.187 28.242C420.455 29.0308 419.579 29.6712 418.605 30.128C419.966 30.5837 421.224 31.3046 422.305 32.249C423.753 33.6491 424.474 35.5873 424.474 38.0479C424.484 40.0922 423.792 42.0781 422.514 43.6743ZM433.569 42.7183C434.614 44.155 436.23 44.8811 438.414 44.8811C439.33 44.9194 440.242 44.7558 441.087 44.4019C441.931 44.0479 442.687 43.5124 443.302 42.8332C443.987 42.0393 444.482 41.0995 444.749 40.0853H448.628C448.462 41.0999 448.107 42.0745 447.582 42.9586C447.083 43.9266 446.432 44.8084 445.654 45.5707C444.434 46.7568 442.905 47.5768 441.242 47.9373C440.193 48.1791 439.12 48.2949 438.043 48.2821C436.659 48.3029 435.286 48.0301 434.014 47.4817C432.743 46.9333 431.603 46.1217 430.668 45.1005C428.651 42.9726 427.642 40 427.642 36.1828C427.642 32.4214 428.659 29.3653 430.694 27.0144C431.671 25.8668 432.894 24.9543 434.272 24.3446C435.65 23.735 437.148 23.4439 438.655 23.4932C440.327 23.4958 441.976 23.8951 443.464 24.6582C444.898 25.3336 446.123 26.382 447.013 27.6935C447.824 28.9434 448.359 30.3524 448.581 31.8258C448.858 33.5334 448.973 35.2633 448.926 36.9926H431.87C431.968 39.3644 432.539 41.2729 433.585 42.7183H433.569ZM462.463 27.2129H458.721V42.5146C458.682 42.8395 458.74 43.1687 458.888 43.4606C459.036 43.7526 459.267 43.9942 459.552 44.155C460.038 44.3481 460.561 44.4302 461.083 44.3953H461.7C461.914 44.3953 462.171 44.3639 462.463 44.3221V47.4567C462.001 47.5885 461.529 47.6845 461.052 47.744C460.531 47.8018 460.008 47.8297 459.484 47.8276C457.644 47.8276 456.4 47.3626 455.742 46.417C455.043 45.329 454.698 44.0517 454.754 42.7601V27.2129H451.581V23.9948H454.754V17.4541H458.742V23.9948H462.484L462.463 27.2129ZM474.924 27.2129H471.182V42.5146C471.143 42.8395 471.201 43.1687 471.349 43.4606C471.496 43.7526 471.728 43.9942 472.013 44.155C472.499 44.3486 473.022 44.4307 473.544 44.3953H474.161C474.375 44.3953 474.631 44.3639 474.924 44.3221V47.4567C474.462 47.588 473.99 47.684 473.513 47.744C472.992 47.8018 472.469 47.8297 471.945 47.8276C470.105 47.8276 468.856 47.3626 468.197 46.417C467.5 45.3284 467.157 44.0512 467.214 42.7601V27.2129H464.042V23.9948H467.214V17.4541H471.203V23.9948H474.945L474.924 27.2129ZM483.423 42.7183C484.468 44.155 486.084 44.8811 488.268 44.8811C489.184 44.9177 490.097 44.7533 490.942 44.3995C491.787 44.0457 492.544 43.5111 493.161 42.8332C493.843 42.0378 494.336 41.0983 494.603 40.0853H498.482C498.316 41.0999 497.961 42.0745 497.436 42.9586C496.937 43.9266 496.286 44.8084 495.508 45.5707C494.288 46.7577 492.76 47.5778 491.096 47.9373C490.049 48.1788 488.977 48.2946 487.902 48.2821C486.518 48.3039 485.144 48.0316 483.873 47.4831C482.602 46.9346 481.461 46.1225 480.527 45.1005C478.51 42.9726 477.501 40 477.501 36.1828C477.501 32.4214 478.517 29.3653 480.548 27.0144C481.526 25.8667 482.75 24.9541 484.129 24.3445C485.508 23.7349 487.007 23.4439 488.514 23.4932C490.186 23.4972 491.834 23.8964 493.323 24.6582C494.755 25.3355 495.981 26.3835 496.872 27.6935C497.683 28.9434 498.218 30.3524 498.44 31.8258C498.722 33.5329 498.839 35.2631 498.79 36.9926H481.735C481.822 39.3644 482.385 41.2729 483.423 42.7183ZM515.307 27.7405C515.077 27.6987 514.863 27.6674 514.664 27.6517C514.465 27.636 514.251 27.6517 514.016 27.6517C512.033 27.6517 510.509 28.2908 509.442 29.569C508.393 30.7968 507.825 32.3634 507.843 33.9782V47.4567H503.902V23.9948H507.644V28.054C508.194 26.9529 508.962 25.9752 509.902 25.1807C511.003 24.0906 512.492 23.4818 514.042 23.488C514.11 23.488 514.235 23.488 514.413 23.488C514.591 23.488 514.884 23.5298 515.307 23.5716V27.7405Z" fill="url(#paint18_linear_101_2972)"/>
<defs>
<linearGradient id="paint0_linear_101_2972" x1="13.1168" y1="16.9073" x2="38.9757" y2="16.9073" gradientUnits="userSpaceOnUse">
<stop stop-color="#252156"/>
<stop offset="1" stop-color="#143960"/>
</linearGradient>
<linearGradient id="paint1_linear_101_2972" x1="33.337" y1="16.916" x2="37.2835" y2="16.916" gradientUnits="userSpaceOnUse">
<stop stop-color="#252156"/>
<stop offset="1" stop-color="#143960"/>
</linearGradient>
<linearGradient id="paint2_linear_101_2972" x1="49.6762" y1="25.0082" x2="68.9868" y2="25.0082" gradientUnits="userSpaceOnUse">
<stop stop-color="#252156"/>
<stop offset="1" stop-color="#143960"/>
</linearGradient>
<linearGradient id="paint3_linear_101_2972" x1="73.3487" y1="16.916" x2="92.5046" y2="16.916" gradientUnits="userSpaceOnUse">
<stop stop-color="#252156"/>
<stop offset="1" stop-color="#143960"/>
</linearGradient>
<linearGradient id="paint4_linear_101_2972" x1="114.458" y1="16.916" x2="144.908" y2="16.916" gradientUnits="userSpaceOnUse">
<stop stop-color="#252156"/>
<stop offset="1" stop-color="#143960"/>
</linearGradient>
<linearGradient id="paint5_linear_101_2972" x1="145.944" y1="25.0525" x2="167.832" y2="25.0525" gradientUnits="userSpaceOnUse">
<stop stop-color="#252156"/>
<stop offset="1" stop-color="#143960"/>
</linearGradient>
<linearGradient id="paint6_linear_101_2972" x1="170.451" y1="25.0961" x2="189.293" y2="25.0961" gradientUnits="userSpaceOnUse">
<stop stop-color="#252156"/>
<stop offset="1" stop-color="#143960"/>
</linearGradient>
<linearGradient id="paint7_linear_101_2972" x1="195.808" y1="25.0629" x2="217.696" y2="25.0629" gradientUnits="userSpaceOnUse">
<stop stop-color="#252156"/>
<stop offset="1" stop-color="#143960"/>
</linearGradient>
<linearGradient id="paint8_linear_101_2972" x1="219.487" y1="25.2052" x2="239.694" y2="25.2052" gradientUnits="userSpaceOnUse">
<stop stop-color="#252156"/>
<stop offset="1" stop-color="#143960"/>
</linearGradient>
<linearGradient id="paint9_linear_101_2972" x1="245.02" y1="25.0911" x2="266.02" y2="25.0911" gradientUnits="userSpaceOnUse">
<stop stop-color="#252156"/>
<stop offset="1" stop-color="#143960"/>
</linearGradient>
<linearGradient id="paint10_linear_101_2972" x1="276.434" y1="25.0887" x2="307.544" y2="25.0887" gradientUnits="userSpaceOnUse">
<stop stop-color="#252156"/>
<stop offset="1" stop-color="#143960"/>
</linearGradient>
<linearGradient id="paint11_linear_101_2972" x1="307.327" y1="25.1125" x2="328.301" y2="25.1125" gradientUnits="userSpaceOnUse">
<stop stop-color="#252156"/>
<stop offset="1" stop-color="#143960"/>
</linearGradient>
<linearGradient id="paint12_linear_101_2972" x1="332.505" y1="25.0961" x2="351.347" y2="25.0961" gradientUnits="userSpaceOnUse">
<stop stop-color="#252156"/>
<stop offset="1" stop-color="#143960"/>
</linearGradient>
<linearGradient id="paint13_linear_101_2972" x1="350.964" y1="19.0788" x2="361.691" y2="19.0788" gradientUnits="userSpaceOnUse">
<stop stop-color="#252156"/>
<stop offset="1" stop-color="#143960"/>
</linearGradient>
<linearGradient id="paint14_linear_101_2972" x1="438.446" y1="26.9087" x2="451.182" y2="26.9087" gradientUnits="userSpaceOnUse">
<stop stop-color="#252156"/>
<stop offset="1" stop-color="#143960"/>
</linearGradient>
<linearGradient id="paint15_linear_101_2972" x1="488.289" y1="26.9088" x2="501.005" y2="26.9088" gradientUnits="userSpaceOnUse">
<stop stop-color="#252156"/>
<stop offset="1" stop-color="#143960"/>
</linearGradient>
<linearGradient id="paint16_linear_101_2972" x1="411.167" y1="18.9092" x2="425.748" y2="18.9092" gradientUnits="userSpaceOnUse">
<stop stop-color="#252156"/>
<stop offset="1" stop-color="#143960"/>
</linearGradient>
<linearGradient id="paint17_linear_101_2972" x1="411.949" y1="32.398" x2="428.032" y2="32.398" gradientUnits="userSpaceOnUse">
<stop stop-color="#252156"/>
<stop offset="1" stop-color="#143960"/>
</linearGradient>
<linearGradient id="paint18_linear_101_2972" x1="457.414" y1="0" x2="622.542" y2="0" gradientUnits="userSpaceOnUse">
<stop stop-color="#252156"/>
<stop offset="1" stop-color="#143960"/>
</linearGradient>
</defs>
</svg>
